<?xml version="1.0" encoding="utf-8"?>
<!-- Generator: Adobe Illustrator 20.0.0, SVG Export Plug-In . SVG Version: 6.00 Build 0)  -->
<svg version="1.1" id="Layer_1" xmlns="http://www.w3.org/2000/svg" xmlns:xlink="http://www.w3.org/1999/xlink" x="0px" y="0px"
	 width="418px" height="100.53px" viewBox="0 0 418 100.53" enable-background="new 0 0 418 100.53" xml:space="preserve">
<path fill="#FFFFFF" d="M119.11,35.91c0,0.12-0.07,0.2-0.2,0.2h-1.64c-0.12,0-0.2-0.07-0.2-0.2v-5.31h-5.72v5.31
	c0,0.12-0.07,0.2-0.2,0.2h-1.62c-0.12,0-0.2-0.07-0.2-0.2V23.86c0-0.12,0.07-0.2,0.2-0.2h1.62c0.12,0,0.2,0.07,0.2,0.2v4.97h5.72
	v-4.97c0-0.12,0.07-0.2,0.2-0.2h1.64c0.12,0,0.2,0.07,0.2,0.2V35.91z M127.8,36.07c-0.64,0.16-1.25,0.23-1.82,0.23
	c-2.69,0-4.2-1.74-4.2-4.5c0-2.78,1.53-4.51,4.13-4.51c2.14,0,3.44,1.07,3.44,2.83c0,1.37-0.84,2.15-2.62,2.42l-2.8,0.43
	c0.2,0.94,0.91,1.53,2.03,1.53c0.5,0,1.03-0.05,1.41-0.18l0.78-0.2c0.12-0.03,0.21,0.02,0.25,0.14l0.36,1.34
	c0.04,0.12-0.02,0.21-0.14,0.25L127.8,36.07z M126.43,31.02c0.62-0.11,0.96-0.39,0.96-0.86c0-0.71-0.55-1.09-1.51-1.09
	c-1.18,0-1.98,0.73-2.12,2.37L126.43,31.02z M133.82,34.03c0,0.3,0.12,0.48,0.36,0.48c0.05,0,0.09,0,0.12,0
	c0.12-0.02,0.2-0.02,0.25,0.11l0.53,1.26c0.05,0.12,0.02,0.21-0.09,0.27c-0.25,0.11-0.55,0.16-0.82,0.16
	c-1.46,0-2.33-0.83-2.33-2.28V23.54c0-0.12,0.07-0.19,0.2-0.19h1.59c0.12,0,0.2,0.07,0.2,0.19V34.03z M139.44,32.28
	c-1.48-0.37-2.17-1.14-2.17-2.42c0-1.6,1.19-2.56,3.26-2.56c0.8,0,1.62,0.12,2.21,0.28l0.78,0.2c0.12,0.03,0.18,0.12,0.14,0.25
	l-0.37,1.33c-0.04,0.12-0.12,0.18-0.25,0.14l-0.78-0.21c-0.48-0.14-1.19-0.21-1.73-0.21c-0.82,0-1.3,0.3-1.3,0.78
	c0,0.41,0.25,0.66,0.8,0.82l1.78,0.46c1.55,0.39,2.24,1.19,2.24,2.47c0,1.67-1.25,2.69-3.35,2.69c-0.93,0-1.85-0.12-2.72-0.37
	l-0.69-0.19c-0.12-0.03-0.18-0.12-0.14-0.25l0.41-1.34c0.04-0.11,0.12-0.16,0.23-0.12l0.64,0.18c0.68,0.19,1.62,0.3,2.28,0.3
	c0.87,0,1.37-0.34,1.37-0.89c0-0.43-0.25-0.69-0.84-0.87L139.44,32.28z M148.95,35.91c0,0.12-0.07,0.2-0.2,0.2h-1.58
	c-0.12,0-0.2-0.07-0.2-0.2v-6.68h-0.87c-0.12,0-0.2-0.07-0.2-0.19v-1.37c0-0.12,0.07-0.19,0.2-0.19h2.65c0.12,0,0.2,0.07,0.2,0.19
	V35.91z M148.93,24.4c0,0.77-0.43,1.21-1.18,1.21c-0.75,0-1.19-0.45-1.19-1.21c0-0.75,0.44-1.19,1.19-1.19
	C148.5,23.2,148.93,23.65,148.93,24.4z M153.33,28.37c0.11,0.21,0.21,0.19,0.41,0.02c0.7-0.78,1.58-1.09,2.46-1.09
	c2.03,0,3.26,1.26,3.26,3.37v5.25c0,0.12-0.07,0.2-0.2,0.2h-1.58c-0.12,0-0.2-0.07-0.2-0.2v-5.04c0-1.12-0.59-1.8-1.55-1.8
	c-1.32,0-2.08,0.96-2.08,2.69v4.15c0,0.12-0.07,0.2-0.2,0.2h-1.58c-0.12,0-0.2-0.07-0.2-0.2v-8.24c0-0.12,0.07-0.19,0.2-0.19h0.89
	c0.12,0,0.2,0.05,0.21,0.18L153.33,28.37z M164.05,38.14c0.37,0.11,1.01,0.19,1.53,0.19c1.23,0,2.35-0.48,2.67-1.9
	c0.05-0.78,0.07-0.73,0.09-1.1c0-0.12-0.09-0.21-0.25-0.06c-0.59,0.64-1.44,1.03-2.46,1.03c-2.35,0-3.78-1.74-3.78-4.47
	c0-2.87,1.55-4.54,4.15-4.54c0.73,0,1.5,0.12,2.19,0.41l1.58,0.66c0.11,0.03,0.16,0.1,0.16,0.21v7.46c0,2.64-1.55,4.08-4.27,4.08
	c-0.66,0-1.44-0.09-1.94-0.23l-0.87-0.25c-0.12-0.04-0.18-0.12-0.14-0.25l0.41-1.32c0.04-0.11,0.12-0.16,0.23-0.12L164.05,38.14z
	 M167.44,29.38c-0.39-0.2-0.93-0.3-1.44-0.3c-1.37,0-2.17,1-2.17,2.71c0,1.62,0.73,2.72,2.05,2.72c1.35,0,2.1-0.98,2.1-2.69v-2.19
	L167.44,29.38z M175.29,35.91c0,0.12-0.07,0.2-0.2,0.2h-1.59c-0.12,0-0.2-0.07-0.2-0.2v-6.68h-0.87c-0.12,0-0.2-0.07-0.2-0.19v-1.37
	c0-0.12,0.07-0.19,0.2-0.19h2.65c0.12,0,0.2,0.07,0.2,0.19V35.91z M175.28,24.4c0,0.77-0.43,1.21-1.18,1.21
	c-0.75,0-1.19-0.45-1.19-1.21c0-0.75,0.45-1.19,1.19-1.19C174.85,23.2,175.28,23.65,175.28,24.4z M179.68,28.37
	c0.11,0.21,0.21,0.19,0.41,0.02c0.69-0.78,1.58-1.09,2.46-1.09c2.03,0,3.26,1.26,3.26,3.37v5.25c0,0.12-0.07,0.2-0.2,0.2h-1.58
	c-0.12,0-0.2-0.07-0.2-0.2v-5.04c0-1.12-0.59-1.8-1.55-1.8c-1.32,0-2.08,0.96-2.08,2.69v4.15c0,0.12-0.07,0.2-0.2,0.2h-1.58
	c-0.12,0-0.2-0.07-0.2-0.2v-8.24c0-0.12,0.07-0.19,0.2-0.19h0.89c0.12,0,0.2,0.05,0.21,0.18L179.68,28.37z M196.04,39.78
	c-0.04,0.11-0.11,0.16-0.21,0.16h-1.64c-0.14,0-0.21-0.09-0.16-0.23l0.94-2.24c0.48-1.26,0.3-2.33-0.34-4l-2.37-5.75
	c-0.05-0.14,0.02-0.23,0.16-0.23h1.65c0.11,0,0.18,0.05,0.23,0.14l1.41,3.36c0.3,0.8,0.62,1.92,0.73,2.6
	c0.04,0.18,0.23,0.18,0.29-0.02c0.12-0.66,0.46-1.82,0.77-2.58l1.39-3.36c0.05-0.09,0.12-0.14,0.23-0.14h1.66
	c0.14,0,0.21,0.09,0.16,0.23L196.04,39.78z M205.24,34.03c0,0.3,0.12,0.48,0.36,0.48c0.05,0,0.09,0,0.12,0
	c0.12-0.02,0.2-0.02,0.25,0.11l0.53,1.26c0.05,0.12,0.02,0.21-0.09,0.27c-0.25,0.11-0.55,0.16-0.82,0.16
	c-1.46,0-2.33-0.83-2.33-2.28V23.54c0-0.12,0.07-0.19,0.2-0.19h1.58c0.12,0,0.2,0.07,0.2,0.19V34.03z M211.13,35.91
	c0,0.12-0.07,0.2-0.2,0.2h-1.58c-0.12,0-0.2-0.07-0.2-0.2v-6.68h-0.87c-0.12,0-0.2-0.07-0.2-0.19v-1.37c0-0.12,0.07-0.19,0.2-0.19
	h2.65c0.12,0,0.2,0.07,0.2,0.19V35.91z M211.12,24.4c0,0.77-0.43,1.21-1.18,1.21c-0.75,0-1.19-0.45-1.19-1.21
	c0-0.75,0.45-1.19,1.19-1.19C210.69,23.2,211.12,23.65,211.12,24.4z M221.84,31.79c0,2.78-1.57,4.52-4.1,4.52
	c-2.54,0-4.11-1.74-4.11-4.52c0-2.74,1.57-4.49,4.11-4.49C220.27,27.3,221.84,29.04,221.84,31.79z M215.59,31.79
	c0,1.71,0.8,2.72,2.15,2.72c1.32,0,2.14-1.01,2.14-2.72c0-1.69-0.82-2.71-2.14-2.71C216.39,29.08,215.59,30.09,215.59,31.79z
	 M225.83,28.39c0.07,0.19,0.21,0.18,0.34,0.02c0.69-0.78,1.53-1.1,2.49-1.1c2.33,0,3.74,1.73,3.74,4.49c0,2.8-1.49,4.52-3.99,4.52
	c-0.64,0-1.1-0.11-1.62-0.34l-0.48-0.21v3.99c0,0.12-0.07,0.2-0.2,0.2h-1.58c-0.12,0-0.2-0.07-0.2-0.2V27.67
	c0-0.12,0.07-0.19,0.2-0.19h0.89c0.12,0,0.2,0.05,0.21,0.16L225.83,28.39z M226.83,34.21c0.43,0.21,0.93,0.3,1.46,0.3
	c1.37,0,2.15-1.01,2.15-2.72c0-1.69-0.78-2.71-2.1-2.71c-1.34,0-2.05,1.1-2.05,2.65v2.23L226.83,34.21z M237.37,35.91
	c0,0.12-0.07,0.2-0.2,0.2h-1.58c-0.12,0-0.2-0.07-0.2-0.2v-6.68h-0.87c-0.12,0-0.2-0.07-0.2-0.19v-1.37c0-0.12,0.07-0.19,0.2-0.19
	h2.65c0.12,0,0.2,0.07,0.2,0.19V35.91z M237.35,24.4c0,0.77-0.43,1.21-1.17,1.21c-0.75,0-1.19-0.45-1.19-1.21
	c0-0.75,0.45-1.19,1.19-1.19C236.93,23.2,237.35,23.65,237.35,24.4z M242.27,32.28c-1.48-0.37-2.17-1.14-2.17-2.42
	c0-1.6,1.19-2.56,3.26-2.56c0.8,0,1.62,0.12,2.21,0.28l0.78,0.2c0.12,0.03,0.18,0.12,0.14,0.25l-0.38,1.33
	c-0.04,0.12-0.12,0.18-0.25,0.14l-0.78-0.21c-0.48-0.14-1.19-0.21-1.73-0.21c-0.82,0-1.3,0.3-1.3,0.78c0,0.41,0.25,0.66,0.8,0.82
	l1.78,0.46c1.55,0.39,2.24,1.19,2.24,2.47c0,1.67-1.25,2.69-3.35,2.69c-0.93,0-1.85-0.12-2.72-0.37l-0.7-0.19
	c-0.12-0.03-0.18-0.12-0.14-0.25l0.41-1.34c0.04-0.11,0.12-0.16,0.23-0.12l0.64,0.18c0.68,0.19,1.62,0.3,2.28,0.3
	c0.87,0,1.37-0.34,1.37-0.89c0-0.43-0.25-0.69-0.84-0.87L242.27,32.28z M253.78,27.48c0.12,0,0.2,0.07,0.2,0.19v1.37
	c0,0.12-0.07,0.19-0.2,0.19h-1.99v4.33c0,0.6,0.27,0.94,0.69,0.94c0.16,0,0.32-0.02,0.46-0.07c0.12-0.06,0.21-0.04,0.27,0.09
	l0.57,1.21c0.05,0.11,0.02,0.19-0.09,0.27c-0.32,0.18-0.78,0.3-1.21,0.3c-1.69,0-2.67-1.01-2.67-2.74v-4.33h-0.87
	c-0.12,0-0.2-0.07-0.2-0.19v-1.37c0-0.12,0.07-0.19,0.2-0.19h0.87v-2.05c0-0.1,0.05-0.18,0.16-0.21l1.58-0.54
	c0.14-0.03,0.23,0.02,0.23,0.16v2.64H253.78z M264.07,31.79c0,2.78-1.57,4.52-4.1,4.52c-2.54,0-4.11-1.74-4.11-4.52
	c0-2.74,1.57-4.49,4.11-4.49C262.5,27.3,264.07,29.04,264.07,31.79z M257.82,31.79c0,1.71,0.8,2.72,2.15,2.72
	c1.32,0,2.14-1.01,2.14-2.72c0-1.69-0.82-2.71-2.14-2.71C258.62,29.08,257.82,30.09,257.82,31.79z M268.03,28.37
	c0.11,0.21,0.21,0.19,0.41,0.02c0.69-0.78,1.58-1.09,2.46-1.09c2.03,0,3.26,1.26,3.26,3.37v5.25c0,0.12-0.07,0.2-0.2,0.2h-1.58
	c-0.12,0-0.2-0.07-0.2-0.2v-5.04c0-1.12-0.59-1.8-1.55-1.8c-1.32,0-2.08,0.96-2.08,2.69v4.15c0,0.12-0.07,0.2-0.2,0.2h-1.59
	c-0.12,0-0.2-0.07-0.2-0.2v-8.24c0-0.12,0.07-0.19,0.2-0.19h0.89c0.12,0,0.2,0.05,0.21,0.18L268.03,28.37z M284.39,39.78
	c-0.04,0.11-0.11,0.16-0.21,0.16h-1.64c-0.14,0-0.21-0.09-0.16-0.23l0.94-2.24c0.48-1.26,0.3-2.33-0.34-4l-2.37-5.75
	c-0.05-0.14,0.02-0.23,0.16-0.23h1.66c0.11,0,0.18,0.05,0.23,0.14l1.41,3.36c0.3,0.8,0.62,1.92,0.73,2.6
	c0.04,0.18,0.23,0.18,0.29-0.02c0.12-0.66,0.46-1.82,0.77-2.58l1.39-3.36c0.05-0.09,0.12-0.14,0.23-0.14h1.65
	c0.14,0,0.21,0.09,0.16,0.23L284.39,39.78z M293.59,34.03c0,0.3,0.12,0.48,0.36,0.48c0.05,0,0.09,0,0.12,0
	c0.12-0.02,0.2-0.02,0.25,0.11l0.53,1.26c0.05,0.12,0.02,0.21-0.09,0.27c-0.25,0.11-0.55,0.16-0.82,0.16
	c-1.46,0-2.33-0.83-2.33-2.28V23.54c0-0.12,0.07-0.19,0.2-0.19h1.59c0.12,0,0.2,0.07,0.2,0.19V34.03z M299.48,35.91
	c0,0.12-0.07,0.2-0.2,0.2h-1.58c-0.12,0-0.2-0.07-0.2-0.2v-6.68h-0.87c-0.12,0-0.2-0.07-0.2-0.19v-1.37c0-0.12,0.07-0.19,0.2-0.19
	h2.65c0.12,0,0.2,0.07,0.2,0.19V35.91z M299.46,24.4c0,0.77-0.43,1.21-1.18,1.21c-0.75,0-1.19-0.45-1.19-1.21
	c0-0.75,0.44-1.19,1.19-1.19C299.04,23.2,299.46,23.65,299.46,24.4z M310.19,31.79c0,2.78-1.57,4.52-4.1,4.52
	c-2.54,0-4.11-1.74-4.11-4.52c0-2.74,1.57-4.49,4.11-4.49C308.62,27.3,310.19,29.04,310.19,31.79z M303.94,31.79
	c0,1.71,0.8,2.72,2.15,2.72c1.32,0,2.14-1.01,2.14-2.72c0-1.69-0.82-2.71-2.14-2.71C304.74,29.08,303.94,30.09,303.94,31.79z
	 M314.18,28.39c0.07,0.19,0.21,0.18,0.34,0.02c0.7-0.78,1.53-1.1,2.49-1.1c2.33,0,3.74,1.73,3.74,4.49c0,2.8-1.49,4.52-3.99,4.52
	c-0.64,0-1.1-0.11-1.62-0.34l-0.48-0.21v3.99c0,0.12-0.07,0.2-0.2,0.2h-1.58c-0.12,0-0.2-0.07-0.2-0.2V27.67
	c0-0.12,0.07-0.19,0.2-0.19h0.89c0.12,0,0.2,0.05,0.21,0.16L314.18,28.39z M315.18,34.21c0.43,0.21,0.93,0.3,1.46,0.3
	c1.37,0,2.15-1.01,2.15-2.72c0-1.69-0.78-2.71-2.1-2.71c-1.33,0-2.05,1.1-2.05,2.65v2.23L315.18,34.21z M324.74,28.39
	c0.07,0.19,0.21,0.18,0.34,0.02c0.69-0.78,1.53-1.1,2.49-1.1c2.33,0,3.74,1.73,3.74,4.49c0,2.8-1.5,4.52-3.99,4.52
	c-0.64,0-1.1-0.11-1.62-0.34l-0.48-0.21v3.99c0,0.12-0.07,0.2-0.2,0.2h-1.58c-0.12,0-0.2-0.07-0.2-0.2V27.67
	c0-0.12,0.07-0.19,0.2-0.19h0.89c0.12,0,0.2,0.05,0.21,0.16L324.74,28.39z M325.74,34.21c0.43,0.21,0.93,0.3,1.46,0.3
	c1.37,0,2.15-1.01,2.15-2.72c0-1.69-0.78-2.71-2.1-2.71c-1.34,0-2.05,1.1-2.05,2.65v2.23L325.74,34.21z M336.29,35.91
	c0,0.12-0.07,0.2-0.2,0.2h-1.58c-0.12,0-0.2-0.07-0.2-0.2v-6.68h-0.87c-0.12,0-0.2-0.07-0.2-0.19v-1.37c0-0.12,0.07-0.19,0.2-0.19
	h2.65c0.12,0,0.2,0.07,0.2,0.19V35.91z M336.27,24.4c0,0.77-0.43,1.21-1.18,1.21c-0.75,0-1.19-0.45-1.19-1.21
	c0-0.75,0.45-1.19,1.19-1.19C335.84,23.2,336.27,23.65,336.27,24.4z M341.18,34.03c0,0.3,0.12,0.48,0.36,0.48c0.05,0,0.09,0,0.12,0
	c0.12-0.02,0.2-0.02,0.25,0.11l0.53,1.26c0.05,0.12,0.02,0.21-0.09,0.27c-0.25,0.11-0.55,0.16-0.82,0.16
	c-1.46,0-2.33-0.83-2.33-2.28V23.54c0-0.12,0.07-0.19,0.2-0.19h1.58c0.12,0,0.2,0.07,0.2,0.19V34.03z M345.87,27.56
	c0.61-0.18,1.21-0.27,1.94-0.27c2.4,0,3.88,1.25,3.88,3.4v5.22c0,0.12-0.07,0.2-0.2,0.2h-0.89c-0.12,0-0.2-0.06-0.23-0.16
	l-0.14-0.55c-0.11-0.25-0.21-0.25-0.45-0.04c-0.55,0.61-1.35,0.94-2.44,0.94c-1.98,0-3.08-1.01-3.08-2.69
	c0-1.67,1.14-2.74,3.24-2.74h2.22v-0.1c0-1.09-0.69-1.68-2.01-1.68c-0.52,0-0.96,0.06-1.39,0.18l-0.64,0.19
	c-0.12,0.04-0.21-0.02-0.25-0.14l-0.39-1.32c-0.04-0.12,0.02-0.21,0.14-0.25L345.87,27.56z M347.51,32.43
	c-0.87,0-1.28,0.41-1.28,1.01c0,0.69,0.48,1.12,1.34,1.12c1.41,0,2.17-0.7,2.17-2.01v-0.12H347.51z M356.47,32.28
	c-1.48-0.37-2.17-1.14-2.17-2.42c0-1.6,1.19-2.56,3.26-2.56c0.8,0,1.62,0.12,2.21,0.28l0.78,0.2c0.12,0.03,0.18,0.12,0.14,0.25
	l-0.38,1.33c-0.04,0.12-0.12,0.18-0.25,0.14l-0.78-0.21c-0.48-0.14-1.19-0.21-1.73-0.21c-0.82,0-1.3,0.3-1.3,0.78
	c0,0.41,0.25,0.66,0.8,0.82l1.78,0.46c1.55,0.39,2.24,1.19,2.24,2.47c0,1.67-1.25,2.69-3.35,2.69c-0.93,0-1.85-0.12-2.72-0.37
	l-0.7-0.19c-0.12-0.03-0.18-0.12-0.14-0.25l0.41-1.34c0.04-0.11,0.12-0.16,0.23-0.12l0.64,0.18c0.68,0.19,1.62,0.3,2.28,0.3
	c0.87,0,1.37-0.34,1.37-0.89c0-0.43-0.25-0.69-0.84-0.87L356.47,32.28z M371.11,35.88c0.09,0.12,0.02,0.23-0.14,0.23h-1.76
	c-0.11,0-0.18-0.04-0.25-0.12l-1.23-1.98c-0.5-0.75-1-1.37-1.97-1.37h-0.27v3.28c0,0.12-0.07,0.2-0.2,0.2h-1.58
	c-0.12,0-0.2-0.07-0.2-0.2V23.54c0-0.12,0.07-0.19,0.2-0.19h1.58c0.12,0,0.2,0.07,0.2,0.19v7.32h0.27c0.87,0,1.39-0.77,1.87-1.46
	l1.17-1.8c0.07-0.09,0.14-0.12,0.25-0.12h1.74c0.16,0,0.21,0.1,0.14,0.23l-1.57,2.53c-0.46,0.68-0.98,1.18-1.55,1.39
	c-0.07,0.04-0.09,0.11,0,0.14c0.62,0.27,1.21,0.77,1.66,1.44L371.11,35.88z M379.6,35.22c-0.11-0.21-0.21-0.2-0.41-0.02
	c-0.69,0.78-1.58,1.08-2.46,1.08c-2.03,0-3.26-1.26-3.26-3.36v-5.25c0-0.12,0.07-0.19,0.2-0.19h1.58c0.12,0,0.2,0.07,0.2,0.19v5.04
	c0,1.12,0.59,1.8,1.55,1.8c1.32,0,2.08-0.96,2.08-2.69v-4.15c0-0.12,0.07-0.19,0.2-0.19h1.59c0.12,0,0.2,0.07,0.2,0.19v8.24
	c0,0.12-0.07,0.2-0.2,0.2h-0.89c-0.12,0-0.2-0.06-0.21-0.18L379.6,35.22z M385.45,28.37c0.11,0.21,0.21,0.19,0.41,0.02
	c0.7-0.78,1.58-1.09,2.46-1.09c2.03,0,3.26,1.26,3.26,3.37v5.25c0,0.12-0.07,0.2-0.2,0.2h-1.58c-0.12,0-0.2-0.07-0.2-0.2v-5.04
	c0-1.12-0.59-1.8-1.55-1.8c-1.32,0-2.08,0.96-2.08,2.69v4.15c0,0.12-0.07,0.2-0.2,0.2h-1.58c-0.12,0-0.2-0.07-0.2-0.2v-8.24
	c0-0.12,0.07-0.19,0.2-0.19h0.89c0.12,0,0.2,0.05,0.21,0.18L385.45,28.37z M398.93,27.48c0.12,0,0.2,0.07,0.2,0.19v1.37
	c0,0.12-0.07,0.19-0.2,0.19h-1.99v4.33c0,0.6,0.27,0.94,0.7,0.94c0.16,0,0.32-0.02,0.46-0.07c0.12-0.06,0.21-0.04,0.27,0.09
	l0.57,1.21c0.05,0.11,0.02,0.19-0.09,0.27c-0.32,0.18-0.78,0.3-1.21,0.3c-1.69,0-2.67-1.01-2.67-2.74v-4.33h-0.87
	c-0.12,0-0.2-0.07-0.2-0.19v-1.37c0-0.12,0.07-0.19,0.2-0.19h0.87v-2.05c0-0.1,0.05-0.18,0.16-0.21l1.59-0.54
	c0.14-0.03,0.23,0.02,0.23,0.16v2.64H398.93z M402.48,27.56c0.61-0.18,1.21-0.27,1.94-0.27c2.4,0,3.88,1.25,3.88,3.4v5.22
	c0,0.12-0.07,0.2-0.2,0.2h-0.89c-0.12,0-0.2-0.06-0.23-0.16l-0.14-0.55c-0.11-0.25-0.21-0.25-0.45-0.04
	c-0.55,0.61-1.35,0.94-2.44,0.94c-1.98,0-3.08-1.01-3.08-2.69c0-1.67,1.14-2.74,3.24-2.74h2.22v-0.1c0-1.09-0.69-1.68-2.01-1.68
	c-0.52,0-0.96,0.06-1.39,0.18l-0.64,0.19c-0.12,0.04-0.21-0.02-0.25-0.14l-0.39-1.32c-0.04-0.12,0.02-0.21,0.14-0.25L402.48,27.56z
	 M404.12,32.43c-0.87,0-1.28,0.41-1.28,1.01c0,0.69,0.48,1.12,1.33,1.12c1.41,0,2.17-0.7,2.17-2.01v-0.12H404.12z M111.59,52.74
	c-1.8-0.67-2.43-1.55-2.43-2.92c0-1.79,1.39-2.86,3.54-2.86c0.85,0,1.63,0.15,2.47,0.41l0.82,0.26c0.1,0.04,0.13,0.1,0.1,0.2
	l-0.23,0.67c-0.03,0.08-0.1,0.11-0.18,0.08l-0.79-0.24c-0.72-0.23-1.4-0.35-2.19-0.35c-1.47,0-2.45,0.7-2.45,1.83
	c0,0.75,0.34,1.45,1.76,1.98l2.25,0.85c1.54,0.57,2.46,1.34,2.46,2.82c0,1.94-1.65,3.07-3.94,3.07c-1.22,0-2.14-0.21-3.07-0.55
	l-0.65-0.25c-0.08-0.03-0.12-0.1-0.08-0.18l0.24-0.67c0.03-0.1,0.1-0.13,0.18-0.1l0.65,0.25c0.79,0.28,1.58,0.49,2.73,0.49
	c1.54,0,2.83-0.74,2.83-2.06c0-0.96-0.83-1.52-1.76-1.88L111.59,52.74z M122.74,50.56c0.1,0,0.15,0.05,0.15,0.15v0.67
	c0,0.1-0.05,0.15-0.15,0.15h-1.81v4.95c0,0.7,0.31,1.09,0.87,1.09c0.13,0,0.28-0.03,0.43-0.08c0.08-0.03,0.15,0,0.2,0.08l0.28,0.61
	c0.03,0.08,0.02,0.16-0.06,0.19c-0.23,0.12-0.54,0.18-0.83,0.18c-1.21,0-1.93-0.75-1.93-2.06v-4.96h-0.75
	c-0.1,0-0.15-0.05-0.15-0.15V50.7c0-0.1,0.05-0.15,0.15-0.15h0.75V48.6c0-0.08,0.03-0.15,0.12-0.17l0.78-0.26
	c0.1-0.03,0.16,0.02,0.16,0.13v2.26H122.74z M131.15,57.23c-0.05-0.15-0.15-0.15-0.24-0.01c-0.62,0.88-1.49,1.32-2.61,1.32
	c-1.8,0-2.89-1.21-2.89-3.17V50.7c0-0.1,0.05-0.15,0.15-0.15h0.77c0.1,0,0.15,0.05,0.15,0.15v4.59c0,1.42,0.72,2.27,1.93,2.27
	c1.62,0,2.56-1.21,2.56-3.28V50.7c0-0.1,0.05-0.15,0.15-0.15h0.77c0.1,0,0.15,0.05,0.15,0.15v7.53c0,0.1-0.05,0.15-0.15,0.15h-0.51
	c-0.1,0-0.15-0.05-0.15-0.15L131.15,57.23z M141.59,58.23c0,0.1-0.05,0.15-0.15,0.15h-0.51c-0.1,0-0.15-0.05-0.16-0.15l-0.07-0.98
	c-0.02-0.15-0.11-0.18-0.23-0.02c-0.59,0.82-1.44,1.31-2.5,1.31c-2.07,0-3.33-1.57-3.33-4.08c0-2.53,1.32-4.05,3.53-4.07
	c0.7,0,1.24,0.1,1.86,0.39l0.51,0.23v-4.03c0-0.1,0.05-0.15,0.15-0.15h0.75c0.1,0,0.15,0.05,0.15,0.15V58.23z M139.87,51.73
	c-0.49-0.24-1-0.36-1.67-0.36c-1.57,0.02-2.52,1.16-2.5,3.09c0.02,1.93,0.9,3.1,2.38,3.1c1.63,0,2.45-1.42,2.45-3.26v-2.26
	L139.87,51.73z M149.57,58.3c-0.57,0.18-1.14,0.24-1.76,0.24c-2.25,0-3.59-1.57-3.59-4.08c0-2.5,1.36-4.07,3.58-4.07
	c1.85,0,2.96,0.9,2.96,2.42c0,1.14-0.72,1.81-2.19,2.06l-3.19,0.52c0.21,1.37,1.09,2.17,2.43,2.17c0.55,0,1.06-0.06,1.52-0.21
	l0.49-0.15c0.1-0.01,0.16,0.02,0.2,0.12l0.2,0.65c0.02,0.1-0.02,0.16-0.11,0.18L149.57,58.3z M148.38,53.97
	c0.87-0.15,1.3-0.52,1.3-1.14c0-0.92-0.7-1.46-1.91-1.46c-1.52,0-2.43,1.03-2.48,3.12L148.38,53.97z M154.24,51.7
	c0.05,0.15,0.15,0.15,0.24,0.02c0.62-0.88,1.49-1.32,2.61-1.32c1.79,0,2.89,1.21,2.89,3.17v4.67c0,0.1-0.05,0.15-0.15,0.15h-0.77
	c-0.1,0-0.15-0.05-0.15-0.15v-4.59c0-1.42-0.72-2.27-1.93-2.27c-1.62,0-2.56,1.21-2.56,3.28v3.58c0,0.1-0.05,0.15-0.15,0.15h-0.77
	c-0.1,0-0.15-0.05-0.15-0.15V50.7c0-0.1,0.05-0.15,0.15-0.15h0.51c0.1,0,0.15,0.05,0.15,0.15L154.24,51.7z M166.22,50.56
	c0.1,0,0.15,0.05,0.15,0.15v0.67c0,0.1-0.05,0.15-0.15,0.15h-1.81v4.95c0,0.7,0.31,1.09,0.87,1.09c0.13,0,0.28-0.03,0.42-0.08
	c0.08-0.03,0.15,0,0.2,0.08l0.28,0.61c0.03,0.08,0.02,0.16-0.06,0.19c-0.23,0.12-0.54,0.18-0.83,0.18c-1.21,0-1.93-0.75-1.93-2.06
	v-4.96h-0.75c-0.1,0-0.15-0.05-0.15-0.15V50.7c0-0.1,0.05-0.15,0.15-0.15h0.75V48.6c0-0.08,0.03-0.15,0.11-0.17l0.78-0.26
	c0.1-0.03,0.16,0.02,0.16,0.13v2.26H166.22z M175.16,58.2c0.07,0.1,0.03,0.18-0.1,0.18h-0.9c-0.08,0-0.13-0.03-0.18-0.08l-1.42-1.88
	c-0.59-0.77-1.14-1.5-2.19-1.5h-0.34v3.31c0,0.1-0.05,0.15-0.15,0.15h-0.77c-0.1,0-0.15-0.05-0.15-0.15V46.98
	c0-0.1,0.05-0.15,0.15-0.15h0.77c0.1,0,0.15,0.05,0.15,0.15v6.96h0.31c0.91,0,1.57-0.85,2.15-1.57l1.36-1.73
	c0.05-0.05,0.1-0.08,0.18-0.08h0.9c0.13,0,0.16,0.08,0.1,0.18l-1.6,2.09c-0.52,0.68-1.09,1.29-1.62,1.48c-0.1,0.05-0.11,0.1,0,0.15
	c0.62,0.24,1.16,0.82,1.71,1.53L175.16,58.2z M178.36,50.64c0.47-0.15,1.06-0.25,1.75-0.25c1.99,0,3.23,1.19,3.23,3.17v4.67
	c0,0.1-0.05,0.15-0.15,0.15h-0.51c-0.1,0-0.15-0.05-0.16-0.15l-0.05-0.73c-0.05-0.21-0.16-0.2-0.33-0.02
	c-0.55,0.7-1.39,1.06-2.6,1.06c-1.65,0-2.61-0.9-2.61-2.35c0-1.42,0.99-2.38,2.87-2.4h2.47v-0.21c0-1.39-0.79-2.19-2.19-2.19
	c-0.57,0-1.08,0.06-1.49,0.2l-0.57,0.16c-0.1,0.03-0.16,0-0.2-0.1l-0.18-0.64c-0.03-0.1,0-0.16,0.1-0.19L178.36,50.64z M179.81,54.7
	c-1.24,0-1.81,0.57-1.81,1.42c0,0.92,0.59,1.46,1.63,1.46c1.68,0,2.65-0.97,2.65-2.66V54.7H179.81z M181.66,47.88
	c0,0.75-0.49,1.19-1.32,1.19c-0.85,0-1.32-0.44-1.32-1.19c0-0.75,0.47-1.19,1.32-1.19C181.17,46.69,181.66,47.13,181.66,47.88z
	 M179.7,47.88c0,0.36,0.21,0.55,0.63,0.55c0.41,0,0.64-0.19,0.64-0.55c0-0.36-0.23-0.56-0.64-0.56
	C179.91,47.32,179.7,47.52,179.7,47.88z M190.23,51.23c0,0.1-0.05,0.14-0.15,0.14c-1.75,0.08-2.74,1.55-2.74,4.31v2.55
	c0,0.1-0.05,0.15-0.15,0.15h-0.77c-0.1,0-0.15-0.05-0.15-0.15V50.7c0-0.1,0.05-0.15,0.15-0.15h0.51c0.1,0,0.15,0.05,0.16,0.15
	l0.12,1.23c0.03,0.13,0.13,0.16,0.21,0.03c0.62-0.98,1.42-1.52,2.66-1.57c0.1,0,0.15,0.05,0.15,0.15V51.23z M197.56,58.3
	c-0.57,0.18-1.14,0.24-1.76,0.24c-2.26,0-3.59-1.57-3.59-4.08c0-2.5,1.36-4.07,3.58-4.07c1.84,0,2.96,0.9,2.96,2.42
	c0,1.14-0.72,1.81-2.19,2.06l-3.19,0.52c0.21,1.37,1.1,2.17,2.44,2.17c0.55,0,1.06-0.06,1.52-0.21l0.49-0.15
	c0.1-0.01,0.16,0.02,0.2,0.12l0.2,0.65c0.02,0.1-0.02,0.16-0.12,0.18L197.56,58.3z M196.37,53.97c0.87-0.15,1.31-0.52,1.31-1.14
	c0-0.92-0.7-1.46-1.91-1.46c-1.52,0-2.43,1.03-2.48,3.12L196.37,53.97z M202.23,51.7c0.05,0.15,0.15,0.15,0.25,0.02
	c0.62-0.88,1.49-1.32,2.61-1.32c1.8,0,2.89,1.21,2.89,3.17v4.67c0,0.1-0.05,0.15-0.15,0.15h-0.77c-0.1,0-0.15-0.05-0.15-0.15v-4.59
	c0-1.42-0.72-2.27-1.93-2.27c-1.62,0-2.56,1.21-2.56,3.28v3.58c0,0.1-0.05,0.15-0.15,0.15h-0.77c-0.1,0-0.15-0.05-0.15-0.15V50.7
	c0-0.1,0.05-0.15,0.15-0.15h0.51c0.1,0,0.15,0.05,0.15,0.15L202.23,51.7z M219.7,55.45c-0.38,0.9-0.75,1.98-0.98,2.8
	c-0.02,0.1-0.08,0.13-0.16,0.13h-0.88c-0.08,0-0.15-0.03-0.16-0.13c-0.21-0.82-0.59-1.9-0.98-2.8l-2.12-4.72
	c-0.05-0.12,0-0.18,0.11-0.18h0.82c0.08,0,0.13,0.03,0.16,0.11l1.84,4.1c0.31,0.73,0.54,1.47,0.65,1.96c0.05,0.15,0.18,0.15,0.23,0
	c0.1-0.49,0.34-1.24,0.65-1.96l1.85-4.1c0.03-0.08,0.08-0.11,0.16-0.11h0.82c0.12,0,0.16,0.06,0.12,0.18L219.7,55.45z M225.84,58.23
	c0,0.1-0.05,0.15-0.15,0.15h-0.77c-0.1,0-0.15-0.05-0.15-0.15v-6.71h-0.75c-0.1,0-0.15-0.05-0.15-0.15V50.7
	c0-0.1,0.05-0.15,0.15-0.15h1.67c0.1,0,0.15,0.05,0.15,0.15V58.23z M225.84,47.47c0,0.46-0.26,0.72-0.7,0.72
	c-0.44,0-0.72-0.26-0.72-0.72s0.28-0.72,0.72-0.72C225.58,46.75,225.84,47.01,225.84,47.47z M235.41,58.23
	c0,0.1-0.05,0.15-0.15,0.15h-0.51c-0.1,0-0.15-0.05-0.16-0.15l-0.07-0.98c-0.02-0.15-0.11-0.18-0.23-0.02
	c-0.59,0.82-1.44,1.31-2.5,1.31c-2.07,0-3.33-1.57-3.33-4.08c0-2.53,1.32-4.05,3.53-4.07c0.7,0,1.24,0.1,1.86,0.39l0.51,0.23v-4.03
	c0-0.1,0.05-0.15,0.15-0.15h0.75c0.1,0,0.15,0.05,0.15,0.15V58.23z M233.69,51.73c-0.49-0.24-1-0.36-1.66-0.36
	c-1.57,0.02-2.52,1.16-2.5,3.09c0.02,1.93,0.9,3.1,2.38,3.1c1.63,0,2.45-1.42,2.45-3.26v-2.26L233.69,51.73z M251.1,58.23
	c0,0.1-0.05,0.15-0.15,0.15h-0.8c-0.1,0-0.15-0.05-0.15-0.15V53.1h-6.22v5.13c0,0.1-0.05,0.15-0.15,0.15h-0.79
	c-0.1,0-0.15-0.05-0.15-0.15V47.29c0-0.1,0.05-0.15,0.15-0.15h0.79c0.1,0,0.15,0.05,0.15,0.15v4.83h6.22v-4.83
	c0-0.1,0.05-0.15,0.15-0.15h0.8c0.1,0,0.15,0.05,0.15,0.15V58.23z M259.25,58.3c-0.57,0.18-1.14,0.24-1.76,0.24
	c-2.25,0-3.59-1.57-3.59-4.08c0-2.5,1.36-4.07,3.58-4.07c1.85,0,2.96,0.9,2.96,2.42c0,1.14-0.72,1.81-2.19,2.06l-3.19,0.52
	c0.21,1.37,1.1,2.17,2.43,2.17c0.56,0,1.06-0.06,1.52-0.21l0.49-0.15c0.1-0.01,0.16,0.02,0.2,0.12l0.2,0.65
	c0.02,0.1-0.02,0.16-0.11,0.18L259.25,58.3z M258.06,53.97c0.87-0.15,1.3-0.52,1.3-1.14c0-0.92-0.7-1.46-1.91-1.46
	c-1.52,0-2.43,1.03-2.48,3.12L258.06,53.97z M264.11,56.97c0,0.36,0.15,0.59,0.43,0.59c0.05,0,0.1,0,0.15-0.02
	c0.08-0.03,0.15,0,0.18,0.08l0.28,0.63c0.03,0.08,0,0.17-0.08,0.2c-0.16,0.05-0.34,0.08-0.52,0.08c-0.93,0-1.49-0.57-1.49-1.57
	v-9.99c0-0.1,0.05-0.15,0.15-0.15h0.77c0.1,0,0.15,0.05,0.15,0.15V56.97z M269.26,54.54c-1.21-0.31-1.76-0.95-1.76-2.02
	c0-1.32,1.03-2.12,2.79-2.12c0.72,0,1.42,0.1,1.91,0.25l0.64,0.19c0.1,0.04,0.13,0.1,0.1,0.2l-0.18,0.64c-0.03,0.1-0.1,0.13-0.2,0.1
	l-0.62-0.18c-0.44-0.13-1.06-0.21-1.63-0.21c-1.11,0-1.75,0.46-1.75,1.15c0,0.57,0.31,0.93,1.04,1.14l1.89,0.54
	c1.27,0.32,1.83,1.01,1.83,2.07c0,1.42-1.1,2.27-2.97,2.27c-0.96,0-1.79-0.13-2.46-0.37l-0.44-0.15c-0.1-0.03-0.13-0.1-0.1-0.2
	l0.23-0.65c0.03-0.08,0.1-0.12,0.18-0.08l0.42,0.15c0.56,0.2,1.31,0.33,2.17,0.33c1.21,0,1.91-0.49,1.91-1.29
	c0-0.6-0.34-0.96-1.09-1.19L269.26,54.54z M277.34,58.23c0,0.1-0.05,0.15-0.15,0.15h-0.77c-0.1,0-0.15-0.05-0.15-0.15v-6.71h-0.75
	c-0.1,0-0.15-0.05-0.15-0.15V50.7c0-0.1,0.05-0.15,0.15-0.15h1.67c0.1,0,0.15,0.05,0.15,0.15V58.23z M277.34,47.47
	c0,0.46-0.26,0.72-0.7,0.72s-0.72-0.26-0.72-0.72s0.28-0.72,0.72-0.72S277.34,47.01,277.34,47.47z M281.29,51.7
	c0.05,0.15,0.15,0.15,0.25,0.02c0.62-0.88,1.49-1.32,2.61-1.32c1.8,0,2.89,1.21,2.89,3.17v4.67c0,0.1-0.05,0.15-0.15,0.15h-0.77
	c-0.1,0-0.15-0.05-0.15-0.15v-4.59c0-1.42-0.72-2.27-1.93-2.27c-1.62,0-2.56,1.21-2.56,3.28v3.58c0,0.1-0.05,0.15-0.15,0.15h-0.77
	c-0.1,0-0.15-0.05-0.15-0.15V50.7c0-0.1,0.05-0.15,0.15-0.15h0.51c0.1,0,0.15,0.05,0.15,0.15L281.29,51.7z M291.3,60.79
	c0.33,0.1,1.04,0.2,1.62,0.2c1.58,0,2.55-0.72,2.66-2.24c0.03-1.27,0.03-0.95,0.06-1.5c0.02-0.13-0.1-0.18-0.2-0.03
	c-0.54,0.75-1.37,1.32-2.53,1.32c-2.06,0-3.33-1.57-3.33-4.06c0-2.55,1.34-4.09,3.62-4.09c0.72,0,1.44,0.17,2.04,0.43l1.18,0.52
	c0.08,0.03,0.11,0.08,0.11,0.16v7.12c0,2.12-1.24,3.37-3.59,3.37c-0.64,0-1.42-0.12-1.86-0.25l-0.72-0.19
	c-0.1-0.04-0.13-0.1-0.1-0.2l0.21-0.65c0.03-0.08,0.1-0.12,0.18-0.08L291.3,60.79z M294.81,51.73c-0.41-0.21-1.01-0.36-1.63-0.36
	c-1.6,0.02-2.53,1.13-2.53,3.09c0,1.83,0.83,3.1,2.37,3.1c1.63,0,2.46-1.37,2.46-3.28v-2.24L294.81,51.73z M299.89,49.13
	c0-1.54,0.85-2.47,2.25-2.47c0.29,0,0.55,0.05,0.87,0.18l0.26,0.1c0.08,0.03,0.11,0.1,0.08,0.18l-0.24,0.65
	c-0.03,0.08-0.1,0.11-0.18,0.08l-0.21-0.08c-0.2-0.08-0.36-0.11-0.57-0.11c-0.75,0-1.19,0.55-1.19,1.47v1.42h1.81
	c0.1,0,0.15,0.05,0.15,0.15v0.67c0,0.1-0.05,0.15-0.15,0.15h-1.81v6.71c0,0.1-0.05,0.15-0.15,0.15h-0.77c-0.1,0-0.15-0.05-0.15-0.15
	v-6.71h-0.75c-0.1,0-0.15-0.05-0.15-0.15V50.7c0-0.1,0.05-0.15,0.15-0.15h0.75V49.13z M311.84,54.46c0,2.51-1.36,4.08-3.56,4.08
	s-3.56-1.57-3.56-4.08c0-2.5,1.36-4.07,3.56-4.07S311.84,51.96,311.84,54.46z M305.79,54.46c0,1.94,0.93,3.1,2.5,3.1
	c1.57,0,2.52-1.16,2.52-3.1c0-1.93-0.95-3.09-2.52-3.09C306.72,51.37,305.79,52.53,305.79,54.46z M318.44,51.23
	c0,0.1-0.05,0.14-0.15,0.14c-1.75,0.08-2.74,1.55-2.74,4.31v2.55c0,0.1-0.05,0.15-0.15,0.15h-0.77c-0.1,0-0.15-0.05-0.15-0.15V50.7
	c0-0.1,0.05-0.15,0.15-0.15h0.51c0.1,0,0.15,0.05,0.16,0.15l0.12,1.23c0.03,0.13,0.13,0.16,0.21,0.03c0.62-0.98,1.42-1.52,2.66-1.57
	c0.1,0,0.15,0.05,0.15,0.15V51.23z M322.46,54.54c-1.21-0.31-1.76-0.95-1.76-2.02c0-1.32,1.03-2.12,2.79-2.12
	c0.72,0,1.42,0.1,1.91,0.25l0.64,0.19c0.1,0.04,0.13,0.1,0.1,0.2l-0.18,0.64c-0.03,0.1-0.1,0.13-0.2,0.1l-0.62-0.18
	c-0.44-0.13-1.06-0.21-1.63-0.21c-1.11,0-1.75,0.46-1.75,1.15c0,0.57,0.31,0.93,1.04,1.14l1.89,0.54c1.27,0.32,1.83,1.01,1.83,2.07
	c0,1.42-1.09,2.27-2.97,2.27c-0.96,0-1.79-0.13-2.46-0.37l-0.44-0.15c-0.1-0.03-0.13-0.1-0.1-0.2l0.23-0.65
	c0.03-0.08,0.1-0.12,0.18-0.08l0.42,0.15c0.56,0.2,1.31,0.33,2.17,0.33c1.21,0,1.91-0.49,1.91-1.29c0-0.6-0.34-0.96-1.09-1.19
	L322.46,54.54z M338.85,57.23c-0.05-0.15-0.15-0.15-0.25-0.01c-0.62,0.88-1.48,1.32-2.61,1.32c-1.79,0-2.89-1.21-2.89-3.17V50.7
	c0-0.1,0.05-0.15,0.15-0.15h0.77c0.1,0,0.15,0.05,0.15,0.15v4.59c0,1.42,0.72,2.27,1.93,2.27c1.62,0,2.56-1.21,2.56-3.28V50.7
	c0-0.1,0.05-0.15,0.15-0.15h0.77c0.1,0,0.15,0.05,0.15,0.15v7.53c0,0.1-0.05,0.15-0.15,0.15h-0.51c-0.1,0-0.15-0.05-0.15-0.15
	L338.85,57.23z M343.67,51.7c0.05,0.15,0.15,0.15,0.25,0.02c0.62-0.88,1.49-1.32,2.61-1.32c1.8,0,2.89,1.21,2.89,3.17v4.67
	c0,0.1-0.05,0.15-0.15,0.15h-0.77c-0.1,0-0.15-0.05-0.15-0.15v-4.59c0-1.42-0.72-2.27-1.93-2.27c-1.62,0-2.56,1.21-2.56,3.28v3.58
	c0,0.1-0.05,0.15-0.15,0.15h-0.77c-0.1,0-0.15-0.05-0.15-0.15V50.7c0-0.1,0.05-0.15,0.15-0.15h0.51c0.1,0,0.15,0.05,0.15,0.15
	L343.67,51.7z M353.84,58.23c0,0.1-0.05,0.15-0.15,0.15h-0.77c-0.1,0-0.15-0.05-0.15-0.15v-6.71h-0.75c-0.1,0-0.15-0.05-0.15-0.15
	V50.7c0-0.1,0.05-0.15,0.15-0.15h1.67c0.1,0,0.15,0.05,0.15,0.15V58.23z M353.84,47.47c0,0.46-0.26,0.72-0.7,0.72
	s-0.72-0.26-0.72-0.72s0.28-0.72,0.72-0.72S353.84,47.01,353.84,47.47z M361.6,55.45c-0.38,0.9-0.75,1.98-0.98,2.8
	c-0.02,0.1-0.08,0.13-0.16,0.13h-0.88c-0.08,0-0.15-0.03-0.16-0.13c-0.21-0.82-0.59-1.9-0.98-2.8l-2.12-4.72
	c-0.05-0.12,0-0.18,0.11-0.18h0.82c0.08,0,0.13,0.03,0.16,0.11l1.85,4.1c0.31,0.73,0.54,1.47,0.65,1.96c0.05,0.15,0.18,0.15,0.23,0
	c0.1-0.49,0.34-1.24,0.65-1.96l1.85-4.1c0.03-0.08,0.08-0.11,0.16-0.11h0.82c0.11,0,0.16,0.06,0.11,0.18L361.6,55.45z M370.92,58.3
	c-0.57,0.18-1.14,0.24-1.76,0.24c-2.25,0-3.59-1.57-3.59-4.08c0-2.5,1.36-4.07,3.58-4.07c1.84,0,2.96,0.9,2.96,2.42
	c0,1.14-0.72,1.81-2.19,2.06l-3.19,0.52c0.21,1.37,1.1,2.17,2.43,2.17c0.56,0,1.06-0.06,1.52-0.21l0.49-0.15
	c0.1-0.01,0.16,0.02,0.2,0.12l0.2,0.65c0.02,0.1-0.02,0.16-0.12,0.18L370.92,58.3z M369.73,53.97c0.87-0.15,1.31-0.52,1.31-1.14
	c0-0.92-0.7-1.46-1.91-1.46c-1.52,0-2.43,1.03-2.48,3.12L369.73,53.97z M378.67,51.23c0,0.1-0.05,0.14-0.15,0.14
	c-1.75,0.08-2.74,1.55-2.74,4.31v2.55c0,0.1-0.05,0.15-0.15,0.15h-0.77c-0.1,0-0.15-0.05-0.15-0.15V50.7c0-0.1,0.05-0.15,0.15-0.15
	h0.51c0.1,0,0.15,0.05,0.16,0.15l0.12,1.23c0.03,0.13,0.13,0.16,0.21,0.03c0.62-0.98,1.42-1.52,2.66-1.57c0.1,0,0.15,0.05,0.15,0.15
	V51.23z M382.69,54.54c-1.21-0.31-1.76-0.95-1.76-2.02c0-1.32,1.03-2.12,2.79-2.12c0.72,0,1.42,0.1,1.91,0.25l0.64,0.19
	c0.1,0.04,0.13,0.1,0.1,0.2l-0.18,0.64c-0.03,0.1-0.1,0.13-0.2,0.1l-0.62-0.18c-0.44-0.13-1.06-0.21-1.63-0.21
	c-1.11,0-1.75,0.46-1.75,1.15c0,0.57,0.31,0.93,1.04,1.14l1.89,0.54c1.27,0.32,1.83,1.01,1.83,2.07c0,1.42-1.1,2.27-2.97,2.27
	c-0.96,0-1.79-0.13-2.46-0.37l-0.44-0.15c-0.1-0.03-0.13-0.1-0.1-0.2l0.23-0.65c0.03-0.08,0.1-0.12,0.18-0.08l0.43,0.15
	c0.55,0.2,1.3,0.33,2.17,0.33c1.21,0,1.91-0.49,1.91-1.29c0-0.6-0.34-0.96-1.1-1.19L382.69,54.54z M390.78,58.23
	c0,0.1-0.05,0.15-0.15,0.15h-0.77c-0.1,0-0.15-0.05-0.15-0.15v-6.71h-0.75c-0.1,0-0.15-0.05-0.15-0.15V50.7
	c0-0.1,0.05-0.15,0.15-0.15h1.67c0.1,0,0.15,0.05,0.15,0.15V58.23z M390.78,47.47c0,0.46-0.26,0.72-0.7,0.72
	c-0.44,0-0.72-0.26-0.72-0.72s0.28-0.72,0.72-0.72C390.51,46.75,390.78,47.01,390.78,47.47z M397.22,50.56
	c0.1,0,0.15,0.05,0.15,0.15v0.67c0,0.1-0.05,0.15-0.15,0.15h-1.81v4.95c0,0.7,0.31,1.09,0.87,1.09c0.13,0,0.28-0.03,0.43-0.08
	c0.08-0.03,0.15,0,0.2,0.08l0.28,0.61c0.03,0.08,0.02,0.16-0.06,0.19c-0.23,0.12-0.54,0.18-0.83,0.18c-1.21,0-1.93-0.75-1.93-2.06
	v-4.96h-0.75c-0.1,0-0.15-0.05-0.15-0.15V50.7c0-0.1,0.05-0.15,0.15-0.15h0.75V48.6c0-0.08,0.03-0.15,0.11-0.17l0.78-0.26
	c0.1-0.03,0.16,0.02,0.16,0.13v2.26H397.22z M404.65,58.3c-0.57,0.18-1.14,0.24-1.76,0.24c-2.25,0-3.59-1.57-3.59-4.08
	c0-2.5,1.36-4.07,3.58-4.07c1.85,0,2.96,0.9,2.96,2.42c0,1.14-0.72,1.81-2.19,2.06l-3.18,0.52c0.21,1.37,1.09,2.17,2.43,2.17
	c0.55,0,1.06-0.06,1.52-0.21l0.49-0.15c0.1-0.01,0.16,0.02,0.2,0.12l0.2,0.65c0.02,0.1-0.02,0.16-0.12,0.18L404.65,58.3z
	 M403.46,53.97c0.87-0.15,1.31-0.52,1.31-1.14c0-0.92-0.7-1.46-1.91-1.46c-1.52,0-2.43,1.03-2.48,3.12L403.46,53.97z M411.76,50.56
	c0.1,0,0.15,0.05,0.15,0.15v0.67c0,0.1-0.05,0.15-0.15,0.15h-1.81v4.95c0,0.7,0.31,1.09,0.87,1.09c0.13,0,0.28-0.03,0.43-0.08
	c0.08-0.03,0.15,0,0.2,0.08l0.28,0.61c0.03,0.08,0.02,0.16-0.07,0.19c-0.23,0.12-0.54,0.18-0.83,0.18c-1.21,0-1.93-0.75-1.93-2.06
	v-4.96h-0.75c-0.1,0-0.15-0.05-0.15-0.15V50.7c0-0.1,0.05-0.15,0.15-0.15h0.75V48.6c0-0.08,0.03-0.15,0.12-0.17l0.78-0.26
	c0.1-0.03,0.16,0.02,0.16,0.13v2.26H411.76z M111.59,75.01c-1.8-0.67-2.43-1.55-2.43-2.92c0-1.79,1.39-2.86,3.54-2.86
	c0.85,0,1.63,0.15,2.47,0.41l0.82,0.26c0.1,0.04,0.13,0.1,0.1,0.2l-0.23,0.67c-0.03,0.08-0.1,0.11-0.18,0.08l-0.79-0.24
	c-0.72-0.23-1.4-0.34-2.19-0.34c-1.47,0-2.45,0.7-2.45,1.83c0,0.75,0.34,1.45,1.76,1.98l2.25,0.85c1.54,0.57,2.46,1.34,2.46,2.82
	c0,1.94-1.65,3.07-3.94,3.07c-1.22,0-2.14-0.21-3.07-0.55l-0.65-0.25c-0.08-0.03-0.12-0.1-0.08-0.18l0.24-0.67
	c0.03-0.1,0.1-0.13,0.18-0.1l0.65,0.25c0.79,0.28,1.58,0.49,2.73,0.49c1.54,0,2.83-0.74,2.83-2.06c0-0.96-0.83-1.52-1.76-1.88
	L111.59,75.01z M122.4,72.82c0.1,0,0.15,0.05,0.15,0.14v0.67c0,0.1-0.05,0.15-0.15,0.15h-1.81v4.95c0,0.7,0.31,1.09,0.87,1.09
	c0.13,0,0.28-0.03,0.43-0.08c0.08-0.03,0.15,0,0.2,0.08l0.28,0.61c0.03,0.08,0.02,0.16-0.06,0.19c-0.23,0.12-0.54,0.18-0.83,0.18
	c-1.21,0-1.93-0.75-1.93-2.06v-4.96h-0.75c-0.1,0-0.15-0.05-0.15-0.15v-0.67c0-0.1,0.05-0.14,0.15-0.14h0.75v-1.96
	c0-0.08,0.03-0.15,0.11-0.17l0.78-0.26c0.1-0.03,0.16,0.02,0.16,0.13v2.26H122.4z M130.46,79.5c-0.05-0.14-0.15-0.14-0.24-0.01
	c-0.62,0.88-1.49,1.32-2.61,1.32c-1.8,0-2.89-1.21-2.89-3.17v-4.67c0-0.1,0.05-0.14,0.15-0.14h0.77c0.1,0,0.15,0.05,0.15,0.14v4.59
	c0,1.42,0.72,2.27,1.93,2.27c1.62,0,2.56-1.21,2.56-3.28v-3.58c0-0.1,0.05-0.14,0.15-0.14h0.77c0.1,0,0.15,0.05,0.15,0.14v7.53
	c0,0.1-0.05,0.15-0.15,0.15h-0.51c-0.1,0-0.15-0.05-0.15-0.15L130.46,79.5z M140.56,80.5c0,0.1-0.05,0.15-0.15,0.15h-0.51
	c-0.1,0-0.15-0.05-0.16-0.15l-0.06-0.98c-0.02-0.15-0.12-0.18-0.23-0.02c-0.59,0.82-1.44,1.31-2.5,1.31c-2.07,0-3.33-1.57-3.33-4.08
	c0-2.53,1.32-4.05,3.53-4.07c0.7,0,1.24,0.1,1.86,0.39l0.51,0.23v-4.03c0-0.1,0.05-0.15,0.15-0.15h0.75c0.1,0,0.15,0.05,0.15,0.15
	V80.5z M138.84,74c-0.49-0.24-1-0.36-1.66-0.36c-1.57,0.02-2.52,1.16-2.5,3.09c0.02,1.93,0.9,3.1,2.38,3.1
	c1.63,0,2.45-1.42,2.45-3.26v-2.26L138.84,74z M148.2,80.56c-0.57,0.18-1.14,0.24-1.76,0.24c-2.25,0-3.59-1.57-3.59-4.08
	c0-2.5,1.36-4.07,3.58-4.07c1.85,0,2.96,0.9,2.96,2.42c0,1.14-0.72,1.81-2.19,2.06L144,77.65c0.21,1.37,1.09,2.17,2.43,2.17
	c0.55,0,1.06-0.06,1.52-0.21l0.49-0.15c0.1-0.01,0.16,0.02,0.2,0.12l0.2,0.65c0.02,0.1-0.02,0.16-0.12,0.18L148.2,80.56z
	 M147.01,76.23c0.87-0.15,1.31-0.52,1.31-1.14c0-0.92-0.7-1.46-1.91-1.46c-1.52,0-2.43,1.03-2.48,3.12L147.01,76.23z M152.53,73.96
	c0.05,0.15,0.15,0.15,0.24,0.02c0.62-0.88,1.49-1.32,2.61-1.32c1.8,0,2.89,1.21,2.89,3.17v4.67c0,0.1-0.05,0.15-0.15,0.15h-0.77
	c-0.1,0-0.15-0.05-0.15-0.15v-4.59c0-1.42-0.72-2.27-1.93-2.27c-1.62,0-2.56,1.21-2.56,3.28v3.58c0,0.1-0.05,0.15-0.15,0.15h-0.77
	c-0.1,0-0.15-0.05-0.15-0.15v-7.53c0-0.1,0.05-0.14,0.15-0.14h0.51c0.1,0,0.15,0.05,0.15,0.14L152.53,73.96z M164.17,72.82
	c0.1,0,0.15,0.05,0.15,0.14v0.67c0,0.1-0.05,0.15-0.15,0.15h-1.81v4.95c0,0.7,0.31,1.09,0.87,1.09c0.13,0,0.28-0.03,0.42-0.08
	c0.08-0.03,0.15,0,0.2,0.08l0.28,0.61c0.03,0.08,0.02,0.16-0.06,0.19c-0.23,0.12-0.54,0.18-0.83,0.18c-1.21,0-1.93-0.75-1.93-2.06
	v-4.96h-0.75c-0.1,0-0.15-0.05-0.15-0.15v-0.67c0-0.1,0.05-0.14,0.15-0.14h0.75v-1.96c0-0.08,0.03-0.15,0.12-0.17l0.78-0.26
	c0.1-0.03,0.16,0.02,0.16,0.13v2.26H164.17z M178.6,76.23c0,2.87-1.54,4.57-4.16,4.57c-2.63,0-4.16-1.7-4.16-4.57v-6.68
	c0-0.1,0.05-0.15,0.15-0.15h0.79c0.1,0,0.15,0.05,0.15,0.15v6.68c0,2.25,1.13,3.56,3.09,3.56s3.09-1.31,3.09-3.56v-6.68
	c0-0.1,0.05-0.15,0.15-0.15h0.78c0.1,0,0.15,0.05,0.15,0.15V76.23z M182.21,73.96c0.05,0.15,0.15,0.15,0.25,0.02
	c0.62-0.88,1.49-1.32,2.61-1.32c1.8,0,2.89,1.21,2.89,3.17v4.67c0,0.1-0.05,0.15-0.15,0.15h-0.77c-0.1,0-0.15-0.05-0.15-0.15v-4.59
	c0-1.42-0.72-2.27-1.93-2.27c-1.62,0-2.56,1.21-2.56,3.28v3.58c0,0.1-0.05,0.15-0.15,0.15h-0.77c-0.1,0-0.15-0.05-0.15-0.15v-7.53
	c0-0.1,0.05-0.14,0.15-0.14H182c0.1,0,0.15,0.05,0.15,0.14L182.21,73.96z M192.04,80.5c0,0.1-0.05,0.15-0.15,0.15h-0.77
	c-0.1,0-0.15-0.05-0.15-0.15v-6.71h-0.75c-0.1,0-0.15-0.05-0.15-0.15v-0.67c0-0.1,0.05-0.14,0.15-0.14h1.67
	c0.1,0,0.15,0.05,0.15,0.14V80.5z M192.04,69.73c0,0.46-0.26,0.72-0.7,0.72c-0.44,0-0.72-0.26-0.72-0.72s0.28-0.72,0.72-0.72
	C191.78,69.01,192.04,69.28,192.04,69.73z M201.45,76.72c0,2.51-1.36,4.08-3.56,4.08c-2.21,0-3.56-1.57-3.56-4.08
	c0-2.5,1.36-4.07,3.56-4.07C200.09,72.66,201.45,74.22,201.45,76.72z M195.39,76.72c0,1.94,0.93,3.1,2.5,3.1
	c1.57,0,2.51-1.16,2.51-3.1c0-1.93-0.95-3.09-2.51-3.09C196.32,73.64,195.39,74.8,195.39,76.72z M204.61,73.96
	c0.05,0.15,0.15,0.15,0.25,0.02c0.62-0.88,1.48-1.32,2.61-1.32c1.8,0,2.89,1.21,2.89,3.17v4.67c0,0.1-0.05,0.15-0.15,0.15h-0.77
	c-0.1,0-0.15-0.05-0.15-0.15v-4.59c0-1.42-0.72-2.27-1.93-2.27c-1.62,0-2.56,1.21-2.56,3.28v3.58c0,0.1-0.05,0.15-0.14,0.15h-0.77
	c-0.1,0-0.15-0.05-0.15-0.15v-7.53c0-0.1,0.05-0.14,0.15-0.14h0.51c0.1,0,0.15,0.05,0.15,0.14L204.61,73.96z M223.39,76.72
	c0,2.51-1.36,4.08-3.56,4.08c-2.21,0-3.56-1.57-3.56-4.08c0-2.5,1.36-4.07,3.56-4.07C222.04,72.66,223.39,74.22,223.39,76.72z
	 M217.33,76.72c0,1.94,0.93,3.1,2.5,3.1c1.57,0,2.51-1.16,2.51-3.1c0-1.93-0.95-3.09-2.51-3.09
	C218.26,73.64,217.33,74.8,217.33,76.72z M226.04,71.4c0-1.54,0.85-2.47,2.25-2.47c0.29,0,0.55,0.05,0.87,0.18l0.26,0.1
	c0.08,0.03,0.11,0.1,0.08,0.18l-0.24,0.65c-0.03,0.08-0.1,0.11-0.18,0.08l-0.21-0.08c-0.2-0.08-0.36-0.11-0.57-0.11
	c-0.75,0-1.19,0.55-1.19,1.47v1.42h1.81c0.1,0,0.15,0.05,0.15,0.14v0.67c0,0.1-0.05,0.15-0.15,0.15h-1.81v6.71
	c0,0.1-0.05,0.15-0.15,0.15h-0.77c-0.1,0-0.15-0.05-0.15-0.15v-6.71h-0.75c-0.1,0-0.15-0.05-0.15-0.15v-0.67
	c0-0.1,0.05-0.14,0.15-0.14h0.75V71.4z M238.32,72.82c0.1,0,0.15,0.05,0.15,0.14v0.67c0,0.1-0.05,0.15-0.15,0.15h-1.81v4.95
	c0,0.7,0.31,1.09,0.87,1.09c0.13,0,0.28-0.03,0.42-0.08c0.08-0.03,0.15,0,0.2,0.08l0.28,0.61c0.03,0.08,0.02,0.16-0.07,0.19
	c-0.23,0.12-0.54,0.18-0.83,0.18c-1.21,0-1.93-0.75-1.93-2.06v-4.96h-0.75c-0.1,0-0.15-0.05-0.15-0.15v-0.67
	c0-0.1,0.05-0.14,0.15-0.14h0.75v-1.96c0-0.08,0.03-0.15,0.12-0.17l0.78-0.26c0.1-0.03,0.16,0.02,0.16,0.13v2.26H238.32z
	 M241.78,72.25c0,0.67-0.05,1.16-0.15,1.67c-0.03,0.15,0.08,0.21,0.21,0.07c0.55-0.82,1.39-1.32,2.6-1.32c1.8,0,2.89,1.21,2.89,3.17
	v4.67c0,0.1-0.05,0.15-0.15,0.15h-0.77c-0.1,0-0.15-0.05-0.15-0.15v-4.59c0-1.42-0.72-2.27-1.93-2.27c-1.88,0-2.56,1.54-2.56,3.28
	v3.58c0,0.1-0.05,0.15-0.15,0.15h-0.77c-0.1,0-0.15-0.05-0.15-0.15V69.24c0-0.1,0.05-0.15,0.15-0.15h0.77c0.1,0,0.15,0.05,0.15,0.15
	V72.25z M254.89,80.56c-0.57,0.18-1.14,0.24-1.76,0.24c-2.25,0-3.59-1.57-3.59-4.08c0-2.5,1.36-4.07,3.58-4.07
	c1.85,0,2.96,0.9,2.96,2.42c0,1.14-0.72,1.81-2.19,2.06l-3.19,0.52c0.21,1.37,1.09,2.17,2.43,2.17c0.56,0,1.06-0.06,1.52-0.21
	l0.49-0.15c0.1-0.01,0.16,0.02,0.2,0.12l0.2,0.65c0.02,0.1-0.02,0.16-0.11,0.18L254.89,80.56z M253.7,76.23
	c0.87-0.15,1.3-0.52,1.3-1.14c0-0.92-0.7-1.46-1.91-1.46c-1.52,0-2.43,1.03-2.48,3.12L253.7,76.23z M270.39,76.23
	c0,2.87-1.54,4.57-4.17,4.57c-2.63,0-4.16-1.7-4.16-4.57v-6.68c0-0.1,0.05-0.15,0.15-0.15h0.78c0.1,0,0.15,0.05,0.15,0.15v6.68
	c0,2.25,1.13,3.56,3.09,3.56c1.96,0,3.09-1.31,3.09-3.56v-6.68c0-0.1,0.05-0.15,0.15-0.15h0.79c0.1,0,0.15,0.05,0.15,0.15V76.23z
	 M274,73.96c0.05,0.15,0.15,0.15,0.24,0.02c0.62-0.88,1.49-1.32,2.61-1.32c1.8,0,2.89,1.21,2.89,3.17v4.67
	c0,0.1-0.05,0.15-0.15,0.15h-0.77c-0.1,0-0.15-0.05-0.15-0.15v-4.59c0-1.42-0.72-2.27-1.93-2.27c-1.62,0-2.56,1.21-2.56,3.28v3.58
	c0,0.1-0.05,0.15-0.15,0.15h-0.77c-0.1,0-0.15-0.05-0.15-0.15v-7.53c0-0.1,0.05-0.14,0.15-0.14h0.51c0.1,0,0.15,0.05,0.15,0.14
	L274,73.96z M283.83,80.5c0,0.1-0.05,0.15-0.15,0.15h-0.77c-0.1,0-0.15-0.05-0.15-0.15v-6.71h-0.75c-0.1,0-0.15-0.05-0.15-0.15
	v-0.67c0-0.1,0.05-0.14,0.15-0.14h1.67c0.1,0,0.15,0.05,0.15,0.14V80.5z M283.83,69.73c0,0.46-0.26,0.72-0.7,0.72
	c-0.44,0-0.72-0.26-0.72-0.72s0.28-0.72,0.72-0.72C283.56,69.01,283.83,69.28,283.83,69.73z M291.24,77.72
	c-0.38,0.9-0.75,1.98-0.98,2.79c-0.02,0.1-0.08,0.13-0.16,0.13h-0.88c-0.08,0-0.15-0.04-0.16-0.13c-0.21-0.82-0.59-1.9-0.98-2.79
	L285.95,73c-0.05-0.12,0-0.18,0.11-0.18h0.82c0.08,0,0.13,0.03,0.16,0.11l1.85,4.1c0.31,0.73,0.54,1.47,0.65,1.96
	c0.05,0.15,0.18,0.15,0.23,0c0.1-0.49,0.34-1.24,0.65-1.96l1.85-4.1c0.03-0.08,0.08-0.11,0.16-0.11h0.82c0.12,0,0.16,0.06,0.12,0.18
	L291.24,77.72z M300.22,80.56c-0.57,0.18-1.14,0.24-1.76,0.24c-2.25,0-3.59-1.57-3.59-4.08c0-2.5,1.36-4.07,3.58-4.07
	c1.85,0,2.96,0.9,2.96,2.42c0,1.14-0.72,1.81-2.19,2.06l-3.18,0.52c0.21,1.37,1.09,2.17,2.43,2.17c0.55,0,1.06-0.06,1.52-0.21
	l0.49-0.15c0.1-0.01,0.16,0.02,0.2,0.12l0.2,0.65c0.02,0.1-0.02,0.16-0.12,0.18L300.22,80.56z M299.03,76.23
	c0.87-0.15,1.31-0.52,1.31-1.14c0-0.92-0.7-1.46-1.91-1.46c-1.52,0-2.43,1.03-2.48,3.12L299.03,76.23z M307.63,73.49
	c0,0.1-0.05,0.14-0.15,0.14c-1.75,0.08-2.74,1.55-2.74,4.31v2.55c0,0.1-0.05,0.15-0.15,0.15h-0.77c-0.1,0-0.15-0.05-0.15-0.15v-7.53
	c0-0.1,0.05-0.14,0.15-0.14h0.51c0.1,0,0.15,0.05,0.16,0.14l0.11,1.23c0.03,0.13,0.13,0.16,0.21,0.03c0.62-0.98,1.42-1.52,2.66-1.57
	c0.1,0,0.15,0.05,0.15,0.15V73.49z M311.3,76.8c-1.21-0.31-1.76-0.95-1.76-2.02c0-1.33,1.03-2.12,2.79-2.12
	c0.72,0,1.42,0.1,1.91,0.25l0.64,0.19c0.1,0.04,0.13,0.1,0.1,0.2l-0.18,0.64c-0.03,0.1-0.1,0.13-0.2,0.1l-0.62-0.18
	c-0.44-0.13-1.06-0.21-1.63-0.21c-1.11,0-1.75,0.46-1.75,1.15c0,0.57,0.31,0.93,1.04,1.14l1.89,0.54c1.27,0.32,1.83,1.01,1.83,2.07
	c0,1.42-1.09,2.27-2.97,2.27c-0.96,0-1.79-0.13-2.46-0.37l-0.44-0.15c-0.1-0.03-0.13-0.1-0.1-0.2l0.23-0.65
	c0.03-0.08,0.1-0.12,0.18-0.08l0.42,0.14c0.56,0.2,1.31,0.33,2.17,0.33c1.21,0,1.91-0.49,1.91-1.29c0-0.6-0.34-0.96-1.09-1.19
	L311.3,76.8z M319.04,80.5c0,0.1-0.05,0.15-0.15,0.15h-0.77c-0.1,0-0.15-0.05-0.15-0.15v-6.71h-0.75c-0.1,0-0.15-0.05-0.15-0.15
	v-0.67c0-0.1,0.05-0.14,0.15-0.14h1.67c0.1,0,0.15,0.05,0.15,0.14V80.5z M319.04,69.73c0,0.46-0.26,0.72-0.7,0.72
	c-0.44,0-0.72-0.26-0.72-0.72s0.28-0.72,0.72-0.72C318.79,69.01,319.04,69.28,319.04,69.73z M325.15,72.82
	c0.1,0,0.15,0.05,0.15,0.14v0.67c0,0.1-0.05,0.15-0.15,0.15h-1.81v4.95c0,0.7,0.31,1.09,0.87,1.09c0.13,0,0.28-0.03,0.42-0.08
	c0.08-0.03,0.15,0,0.2,0.08l0.28,0.61c0.03,0.08,0.02,0.16-0.07,0.19c-0.23,0.12-0.54,0.18-0.83,0.18c-1.21,0-1.93-0.75-1.93-2.06
	v-4.96h-0.75c-0.1,0-0.15-0.05-0.15-0.15v-0.67c0-0.1,0.05-0.14,0.15-0.14h0.75v-1.96c0-0.08,0.03-0.15,0.12-0.17l0.78-0.26
	c0.1-0.03,0.16,0.02,0.16,0.13v2.26H325.15z M329.64,83.97c-0.03,0.08-0.08,0.11-0.16,0.11h-0.8c-0.12,0-0.16-0.06-0.12-0.18
	l1.13-2.53c0.34-0.81,0.2-1.7-0.23-2.71L326.93,73c-0.05-0.12,0-0.18,0.11-0.18h0.82c0.08,0,0.13,0.03,0.16,0.11l1.95,4.29
	c0.28,0.66,0.51,1.36,0.6,1.8c0.03,0.15,0.16,0.15,0.21,0c0.12-0.44,0.41-1.22,0.65-1.8l1.91-4.29c0.04-0.08,0.08-0.11,0.16-0.11
	h0.83c0.1,0,0.15,0.06,0.1,0.18L329.64,83.97z M346.93,76.72c0,2.51-1.36,4.08-3.56,4.08c-2.2,0-3.56-1.57-3.56-4.08
	c0-2.5,1.36-4.07,3.56-4.07C345.58,72.66,346.93,74.22,346.93,76.72z M340.88,76.72c0,1.94,0.93,3.1,2.5,3.1
	c1.57,0,2.51-1.16,2.51-3.1c0-1.93-0.95-3.09-2.51-3.09C341.8,73.64,340.88,74.8,340.88,76.72z M349.58,71.4
	c0-1.54,0.85-2.47,2.25-2.47c0.29,0,0.55,0.05,0.87,0.18l0.26,0.1c0.08,0.03,0.11,0.1,0.08,0.18l-0.24,0.65
	c-0.03,0.08-0.1,0.11-0.18,0.08l-0.21-0.08c-0.2-0.08-0.36-0.11-0.57-0.11c-0.75,0-1.19,0.55-1.19,1.47v1.42h1.81
	c0.1,0,0.15,0.05,0.15,0.14v0.67c0,0.1-0.05,0.15-0.15,0.15h-1.81v6.71c0,0.1-0.05,0.15-0.15,0.15h-0.77c-0.1,0-0.15-0.05-0.15-0.15
	v-6.71h-0.75c-0.1,0-0.15-0.05-0.15-0.15v-0.67c0-0.1,0.05-0.14,0.15-0.14h0.75V71.4z M367.05,80.5c0,0.1-0.05,0.15-0.15,0.15h-0.8
	c-0.1,0-0.15-0.05-0.15-0.15v-5.13h-6.22v5.13c0,0.1-0.05,0.15-0.15,0.15h-0.79c-0.1,0-0.15-0.05-0.15-0.15V69.55
	c0-0.1,0.05-0.15,0.15-0.15h0.79c0.1,0,0.15,0.05,0.15,0.15v4.83h6.22v-4.83c0-0.1,0.05-0.15,0.15-0.15h0.8
	c0.1,0,0.15,0.05,0.15,0.15V80.5z M374.86,80.56c-0.57,0.18-1.14,0.24-1.76,0.24c-2.25,0-3.59-1.57-3.59-4.08
	c0-2.5,1.36-4.07,3.58-4.07c1.85,0,2.96,0.9,2.96,2.42c0,1.14-0.72,1.81-2.19,2.06l-3.19,0.52c0.21,1.37,1.09,2.17,2.43,2.17
	c0.56,0,1.06-0.06,1.52-0.21l0.49-0.15c0.1-0.01,0.16,0.02,0.2,0.12l0.2,0.65c0.02,0.1-0.02,0.16-0.11,0.18L374.86,80.56z
	 M373.66,76.23c0.87-0.15,1.3-0.52,1.3-1.14c0-0.92-0.7-1.46-1.91-1.46c-1.52,0-2.43,1.03-2.48,3.12L373.66,76.23z M379.38,79.24
	c0,0.36,0.15,0.59,0.43,0.59c0.05,0,0.1,0,0.15-0.02c0.08-0.03,0.15,0,0.18,0.08l0.28,0.63c0.03,0.08,0,0.17-0.08,0.2
	c-0.16,0.05-0.34,0.08-0.52,0.08c-0.93,0-1.49-0.57-1.49-1.57v-9.99c0-0.1,0.05-0.15,0.15-0.15h0.77c0.1,0,0.15,0.05,0.15,0.15
	V79.24z M384.18,76.8c-1.21-0.31-1.76-0.95-1.76-2.02c0-1.33,1.03-2.12,2.79-2.12c0.72,0,1.42,0.1,1.91,0.25l0.64,0.19
	c0.1,0.04,0.13,0.1,0.1,0.2l-0.18,0.64c-0.03,0.1-0.1,0.13-0.2,0.1l-0.62-0.18c-0.44-0.13-1.06-0.21-1.63-0.21
	c-1.11,0-1.75,0.46-1.75,1.15c0,0.57,0.31,0.93,1.05,1.14l1.89,0.54c1.27,0.32,1.83,1.01,1.83,2.07c0,1.42-1.09,2.27-2.97,2.27
	c-0.96,0-1.8-0.13-2.46-0.37l-0.44-0.15c-0.1-0.03-0.13-0.1-0.1-0.2l0.23-0.65c0.03-0.08,0.1-0.12,0.18-0.08l0.42,0.14
	c0.56,0.2,1.31,0.33,2.17,0.33c1.21,0,1.91-0.49,1.91-1.29c0-0.6-0.34-0.96-1.09-1.19L384.18,76.8z M391.92,80.5
	c0,0.1-0.05,0.15-0.15,0.15H391c-0.1,0-0.15-0.05-0.15-0.15v-6.71h-0.75c-0.1,0-0.15-0.05-0.15-0.15v-0.67
	c0-0.1,0.05-0.14,0.15-0.14h1.67c0.1,0,0.15,0.05,0.15,0.14V80.5z M391.92,69.73c0,0.46-0.26,0.72-0.7,0.72s-0.72-0.26-0.72-0.72
	s0.28-0.72,0.72-0.72S391.92,69.28,391.92,69.73z M395.53,73.96c0.05,0.15,0.15,0.15,0.25,0.02c0.62-0.88,1.49-1.32,2.61-1.32
	c1.8,0,2.89,1.21,2.89,3.17v4.67c0,0.1-0.05,0.15-0.15,0.15h-0.77c-0.1,0-0.15-0.05-0.15-0.15v-4.59c0-1.42-0.72-2.27-1.93-2.27
	c-1.62,0-2.56,1.21-2.56,3.28v3.58c0,0.1-0.05,0.15-0.15,0.15h-0.77c-0.1,0-0.15-0.05-0.15-0.15v-7.53c0-0.1,0.05-0.14,0.15-0.14
	h0.51c0.1,0,0.15,0.05,0.15,0.14L395.53,73.96z M410.12,80.46c0.07,0.1,0.03,0.18-0.1,0.18h-0.9c-0.08,0-0.13-0.04-0.18-0.08
	l-1.42-1.88c-0.59-0.77-1.14-1.5-2.19-1.5H405v3.31c0,0.1-0.05,0.15-0.15,0.15h-0.77c-0.1,0-0.15-0.05-0.15-0.15V69.24
	c0-0.1,0.05-0.15,0.15-0.15h0.77c0.1,0,0.15,0.05,0.15,0.15v6.96h0.31c0.91,0,1.57-0.85,2.16-1.57l1.36-1.73
	c0.05-0.05,0.1-0.08,0.18-0.08h0.9c0.13,0,0.16,0.08,0.1,0.18l-1.6,2.09c-0.52,0.68-1.09,1.29-1.62,1.49c-0.1,0.05-0.12,0.1,0,0.15
	c0.62,0.24,1.16,0.82,1.71,1.53L410.12,80.46z M413.73,80.5c0,0.1-0.05,0.15-0.14,0.15h-0.77c-0.1,0-0.15-0.05-0.15-0.15v-6.71
	h-0.75c-0.1,0-0.15-0.05-0.15-0.15v-0.67c0-0.1,0.05-0.14,0.15-0.14h1.67c0.1,0,0.14,0.05,0.14,0.14V80.5z M413.73,69.73
	c0,0.46-0.26,0.72-0.7,0.72c-0.44,0-0.72-0.26-0.72-0.72s0.28-0.72,0.72-0.72C413.47,69.01,413.73,69.28,413.73,69.73z"/>
<path fill="#FFFFFF" d="M86.28,60.98c-0.11-0.1-0.24-0.15-0.4-0.13c-0.03,0-0.21,0.03-0.47,0.09c2.49-3.91,1.92-7.84,1.66-9.62
	c-0.04-0.28-0.09-0.6-0.09-0.66c0.02-0.07,0.02-0.14,0.01-0.2c-0.05-0.29-0.24-0.5-0.51-0.57c-0.21-0.05-0.5,0.04-0.83,0.2
	c0.49-1.95,1.04-5.55,1.03-8.02c-0.02-5.55-1.35-7.49-1.94-8.35c-0.08-0.11-0.2-0.19-0.33-0.21c-0.13-0.02-0.27,0.01-0.38,0.09
	c-0.49,0.36-0.94,0.8-1.35,1.32c-0.14-2.78-0.67-5.59-1.49-7.8c-1.62-4.34-5.41-7.66-5.94-7.92c-0.23-0.12-0.52-0.03-0.65,0.2
	c0,0.01-0.01,0.02-0.01,0.03c-2.23-4.91-4.93-6.06-6.13-6.57c-0.17-0.07-0.3-0.13-0.4-0.18c-0.13-0.07-0.27-0.08-0.41-0.03
	c-0.13,0.05-0.24,0.16-0.29,0.29c-0.1,0.28-0.2,0.82-0.22,1.55c-2.01-1.07-4.48-1.7-7.04-1.78c0.02-0.01,0.03-0.02,0.04-0.03
	c0.06-0.03,0.11-0.08,0.16-0.12c0.1-0.07,0.19-0.13,0.27-0.21c0.09-0.08,0.2-0.13,0.29-0.22c1.26-1.25,1.62-3.27,0.85-4.8
	c-0.67-1.34-1.88-2.2-3.4-2.42c-1.75-0.25-3.58,0.4-4.79,1.7c-1.14,1.23-1.47,2.87-1.55,4.54c-0.33-0.27-0.74-0.44-1.19-0.44
	c-0.44,0-0.84,0.16-1.17,0.41V6.46c0-0.24,0-0.28,0.16-0.54c0.29-0.47,0.37-1.33,0.02-1.96c-0.29-0.51-0.81-0.79-1.47-0.79
	c-0.13,0-0.24,0.02-0.36,0.04c-0.09-0.24-0.23-0.46-0.43-0.65C47.18,2.2,46.71,2,46.23,2c-0.42-0.02-0.95,0.19-1.3,0.54
	c-0.19,0.19-0.33,0.41-0.42,0.64c-0.04,0-0.06-0.01-0.1-0.01c-0.71,0-1.28,0.29-1.61,0.82c-0.38,0.62-0.35,1.44-0.11,1.93
	c0.16,0.33,0.16,0.33,0.16,0.54v4.66c-0.32-0.26-0.73-0.41-1.17-0.41c-0.45,0-0.87,0.17-1.19,0.44c-0.09-1.67-0.41-3.31-1.56-4.54
	c-1.21-1.29-3.04-1.94-4.79-1.7c-1.52,0.22-2.73,1.08-3.4,2.42c-0.77,1.53-0.41,3.55,0.85,4.8c0.09,0.09,0.19,0.14,0.28,0.22
	c0.09,0.08,0.19,0.15,0.29,0.22c0.05,0.03,0.1,0.08,0.15,0.1c0.21,0.13,0.44,0.22,0.68,0.29c0.04,0.01,0.09,0.02,0.13,0.03
	c0.24,0.06,0.48,0.1,0.73,0.1c0,0,0.01,0,0.01,0c0,0,0,0,0.01,0c0.25,0,0.49-0.04,0.73-0.1c0.03-0.01,0.07,0,0.1-0.01
	c0,1.93-0.02,7.27-0.21,10.18c-0.44,6.36-1.07,13.1-1.92,20.54c-0.11-0.02-0.22,0-0.32,0.05c-0.05,0.02-4.69,2.58-3.01,9.44
	c0.29,1.17-0.04,1.97-0.33,2.42c-0.23-1.22-0.52-2.22-0.71-2.48c-0.11-0.15-0.28-0.24-0.46-0.22c-0.18,0.02-0.32,0.12-0.39,0.29
	c-0.07,0.11-0.26,0.3-0.51,0.58c-0.78,0.85-2.09,2.27-2.75,3.76c-1.01,2.33-1.27,4.13-1.05,5.83c-1-1.26-2.16-1.98-3.01-2.36l0-0.04
	c0-0.2-0.01-0.36-0.01-0.48c0.02-2.52-1.16-5.89-2.15-8.26c-0.06-0.14-0.18-0.24-0.33-0.28c0.38-1.88,0.3-4.29-0.23-7.22
	c1.51-2.3,1.93-5.85,2.03-8.13c5.36-3.03,6.9-9.09,6.96-9.35c0.03-0.14,0.01-0.29-0.08-0.4c-0.05-0.08-0.14-0.13-0.22-0.16
	c2.76-1.85,5.3-5.45,5.35-7.82c0.01-0.26-0.18-0.47-0.44-0.5c-0.13-0.02-0.25-0.02-0.38-0.03c1.34-1.97,1.67-4.85,1.68-4.99
	c0.02-0.15-0.03-0.29-0.13-0.4c-0.1-0.1-0.25-0.17-0.4-0.15c-0.12,0.01-2.79,0.23-4.98,1.25c-0.03-0.57-0.11-1.12-0.29-1.62
	c-0.05-0.13-0.15-0.24-0.29-0.29c-0.13-0.05-0.28-0.04-0.41,0.02c-2.65,1.38-4.56,3.15-6.51,8.1c-0.02,0.04-0.04,0.11-0.07,0.19
	c-0.18-0.48-0.37-0.78-0.63-1.12c-0.12-0.16-0.33-0.23-0.52-0.17c-0.74,0.2-1.92,1.35-2.49,2.06c-2.12,2.65-3.8,6.23-4.51,9.59
	c-0.07,0.35-0.15,0.67-0.22,0.99c-0.13,0.57-0.26,1.12-0.35,1.71c-0.5-0.78-0.98-1.39-1.26-1.75c-0.1-0.12-0.17-0.21-0.2-0.26
	c-0.13-0.2-0.39-0.28-0.61-0.18c-1.05,0.47-4.37,8.09-2.48,15.78c-0.85-0.67-1.43-1.06-1.52-1.12c-0.14-0.09-0.31-0.11-0.46-0.04
	c-0.15,0.06-0.26,0.19-0.3,0.35c-0.02,0.08-1.74,7.97,3.58,13.79c-0.67-0.11-1.13-0.16-1.19-0.16c-0.16-0.02-0.33,0.06-0.43,0.18
	c-0.1,0.13-0.14,0.3-0.09,0.46c0.09,0.3,2.05,6.45,6.71,9.4c-0.74,0.03-1.59,0.12-2.65,0.27c-0.15,0.02-0.29,0.12-0.37,0.26
	c-0.07,0.14-0.08,0.3-0.01,0.45c1.56,3.32,5.43,7.33,10.01,9.13c-0.79,0.17-1.32,0.35-1.38,0.37c-0.24,0.08-0.38,0.33-0.32,0.57
	c0.05,0.22,1.3,5.41,13.21,5.89c1.77,6.95,8.07,12.12,15.57,12.12c7.43,0,13.68-5.07,15.52-11.92c0.2,0,0.4,0.01,0.59,0.01
	c9.1,0,11.7-4.73,11.81-4.94c0.12-0.23,0.04-0.52-0.18-0.65c-0.03-0.02-0.2-0.12-0.5-0.25c7.33-2.55,9.55-8.75,9.94-10.07
	c0.07-0.25-0.05-0.51-0.29-0.6c-0.1-0.04-0.24-0.07-0.41-0.1c3.4-3.45,3.71-8.86,3.72-9.11C86.45,61.22,86.39,61.08,86.28,60.98z
	 M86.09,51.46c0.27,1.82,0.87,6.03-2.24,9.96c-1.47,0.57-3.48,1.71-5.25,3.93c0.01-0.21,0.03-0.41,0.03-0.62
	c0-0.15-0.06-0.3-0.18-0.39c-0.12-0.1-0.27-0.14-0.42-0.1c-0.19,0.04-0.39,0.09-0.61,0.14c0.43-1.51,0.59-2.85,0.57-4.03
	c0.45-1.12,1.34-2.32,2.2-3.49l0.49-0.67c1.56-2.15,4.3-4.66,5.33-5.21C86.04,51.1,86.06,51.26,86.09,51.46z M13.69,62.96
	c2.27,1.37,8.51,5.61,10.23,11.67c-1.35-0.14-2.32-0.1-2.42-0.09c-0.14,0.01-0.28,0.08-0.37,0.19c-0.09,0.11-0.12,0.26-0.1,0.4
	c0.02,0.08,0.15,0.71,0.51,1.64C15.73,75.54,14.07,66.03,13.69,62.96z M16.07,53.35c-0.71,1.02-1.64,2.59-2.27,4.51
	c-0.58-1.94-1.53-3.7-2.61-5.23c0.08-3.79,2.45-7.39,4.87-9.17C17.05,47.96,17.06,51.28,16.07,53.35z M29.05,60.37l0.14-0.56
	c0.37-0.74,1-1.29,1.56-1.77c-0.07,0.44-0.15,0.85-0.24,1.29l-0.15,0.78c-0.23,0.14-0.44,0.28-0.63,0.43
	c-0.33,0.27-0.66,0.59-0.98,0.95C28.87,61.12,28.97,60.75,29.05,60.37z M30.35,61.32c0.77-0.62,2.22-1.18,3.06-1.47
	c-0.06,1.86-0.66,6.97-5.24,8.04c-0.47-0.43-0.94-0.82-1.4-1.17c0.01-0.02,0.02-0.04,0.02-0.06c0-0.03,0.01-0.06,0.01-0.09
	C27.2,65.38,28.81,62.55,30.35,61.32z M31.61,76.24c-0.18,0.4-0.35,0.81-0.5,1.23c-1.69-1.59-4.01-2.33-5.95-2.67
	c-0.64-2.75-0.48-6.11,0.08-7.96C27.78,68.58,31.47,71.88,31.61,76.24z M22.17,75.51c1.65,0.03,6.16,0.35,8.6,3.02
	c-0.4,1.4-0.62,2.87-0.62,4.39c0,0.49,0.03,0.97,0.07,1.45c-0.48-0.18-0.95-0.4-1.44-0.68C24.25,81,22.63,77,22.17,75.51z
	 M32.42,74.7c-0.48-2.39-1.87-4.41-3.43-6.01c5.69-1.83,5.41-9.47,5.41-9.55c-0.01-0.15-0.08-0.29-0.21-0.38
	c-0.12-0.09-0.28-0.11-0.43-0.07c-0.07,0.02-1.17,0.36-2.28,0.86l0-0.02c0.11-0.56,0.2-1.07,0.3-1.66c0.39,0.14,0.84,0.3,1.27,0.42
	c1.57,0.47,3.82,0.77,6.21-0.04l-0.31,10.36C36.24,69.97,33.98,72.1,32.42,74.7z M40.26,57.82c0.1-0.05,0.21-0.09,0.31-0.14
	c0.84-0.43,1.59-0.89,2.27-1.33c0,4.5,0,8.3,0,10.84c-1,0.21-1.97,0.52-2.89,0.91L40.26,57.82z M43.84,55.69
	c0.33-0.23,0.62-0.44,0.88-0.63c0,3.56,0,7.94,0.01,11.85c-0.3,0.03-0.59,0.08-0.89,0.12C43.84,64.36,43.84,60.38,43.84,55.69z
	 M39.43,52.01c-0.39,0-0.77,0.01-1.16,0.05c0.17-0.11,0.27-0.17,0.28-0.18c0.13-0.09,0.27-0.19,0.41-0.29
	c0.16-0.11,0.32-0.23,0.49-0.34L39.43,52.01z M40.45,51.06c0.77,0.2,1.57,0.37,2.4,0.51v0.79c-0.75-0.14-1.58-0.26-2.43-0.32
	L40.45,51.06z M43.84,51.72c0.3,0.04,0.59,0.07,0.89,0.09l0,0.98c-0.27-0.07-0.56-0.15-0.89-0.22V51.72z M45.72,66.86
	c0-4.17-0.01-8.86,0-12.53c0.15-0.11,0.28-0.2,0.37-0.25c0.17-0.09,0.27-0.28,0.25-0.48c-0.02-0.19-0.15-0.36-0.33-0.43
	c-0.03-0.01-0.13-0.05-0.29-0.1l0-1.22c0.31,0.01,0.63,0.01,0.94,0.01v14.98c-0.14,0-0.28-0.02-0.43-0.02
	C46.06,66.83,45.89,66.85,45.72,66.86z M47.65,51.82c0.33-0.03,0.65-0.07,0.97-0.12v15.33c-0.32-0.05-0.64-0.1-0.97-0.13V51.82z
	 M49.61,67.2l0-15.69c0.83-0.2,1.63-0.49,2.38-0.9c0.07,2.88,0.16,5.98,0.29,10.22l0.22,7.28C51.58,67.71,50.61,67.41,49.61,67.2z
	 M53.51,68.59l-0.24-7.8c-0.14-4.53-0.24-7.76-0.3-10.81c0.74-0.54,1.42-1.21,2.01-2.04c0.09-0.13,0.11-0.3,0.06-0.45
	c-0.05-0.15-0.17-0.27-0.32-0.31c-0.08-0.03-0.76-0.23-1.79-0.41l-0.03-1.48c1.74-0.22,3.52-0.83,4.86-1.48
	c0.35-0.17,0.72-0.39,1.11-0.62c0.5,4.43,1.02,8.63,1.61,13.13c0.68,5.11,1.42,9.39,3.84,13.59c-1.49,1.22-3.16,3.13-3.71,5.8
	C59.05,72.65,56.56,70.15,53.51,68.59z M46.24,46.79c0.14-0.09,0.28-0.19,0.42-0.28v0.21C46.52,46.74,46.38,46.76,46.24,46.79z
	 M47.65,45.84c0.21-0.14,0.43-0.29,0.63-0.42c0.13-0.08,0.24-0.15,0.34-0.2v1.28c-0.32,0.02-0.64,0.04-0.97,0.08V45.84z
	 M49.61,45.11c0.7,0.22,1.48,0.29,2.29,0.26l0.02,1.26c-0.69-0.08-1.47-0.14-2.31-0.15V45.11z M63.8,38.71
	c-0.04-0.13-0.15-0.31-0.43-0.43c-0.52-0.22-1.92-0.26-4.03,0.24l-0.12-1.19c0.13-0.11,0.27-0.21,0.4-0.31
	c0.65-0.49,1.39-0.72,2.44-0.96c5.35-1.18,5.42-5.5,5.46-7.82c0-0.31,0.01-0.6,0.03-0.84c0.01-0.16-0.05-0.31-0.17-0.41
	c-0.12-0.1-0.28-0.14-0.43-0.11c-0.07,0.01-1.12,0.24-2.31,0.87c0,0,0,0,0,0c0.56-1.75,0.65-3.3,0.48-4.67
	c0.61,1.08,1.33,2.1,2.41,3.13c0.28,0.27,0.6,0.55,0.94,0.83c-0.08,0.09-0.12,0.21-0.12,0.33c0.06,1.52,1.54,4.14,1.78,4.45
	c0.38,0.52,0.69,0.96,0.97,1.35c0.54,0.76,0.96,1.37,1.59,2.08l0.36,0.42c0.19,0.22,0.41,0.48,0.65,0.76
	c-0.24,1.24,0.37,5.74,1.05,7.34c0.07,0.16,0.18,0.41,0.31,0.71c-0.22,0.02-0.4,0.17-0.45,0.38l-0.18,0.8
	c-0.47,2.02-1,4.27,0.04,7.47c-0.05-0.02-0.1-0.04-0.14-0.05c-0.21-0.05-0.43,0.04-0.54,0.23l-0.15,0.25
	c-1.06,1.78-2.15,3.63-2.27,6.98c-0.01,0.34,0.02,0.82,0.07,1.33c-0.33-0.3-0.6-0.41-0.63-0.43c-0.1-0.04-0.21-0.04-0.31-0.02
	c-0.29,0.08-2.59,0.89-3.43,6.81c-0.07,0-0.14,0.01-0.2,0.04c-0.09,0.04-0.82,0.39-1.76,1.05c-2.29-4.02-3-8.16-3.66-13.12
	c-0.62-4.67-1.15-8.99-1.67-13.61c1.62-1.12,3.23-2.53,3.93-3.43C63.81,39.03,63.84,38.86,63.8,38.71z M58.35,38.78
	c-0.48,0.14-0.99,0.3-1.53,0.49c0.02-0.01,0.03-0.03,0.05-0.04c0.43-0.36,0.92-0.77,1.41-1.17L58.35,38.78z M62.7,29.11
	c-0.02,0.01-0.04,0.03-0.05,0.04c0.07-0.92-0.43-1.62-1-2.42c-0.38-0.52-0.81-1.12-1.17-1.9c-1.13-2.45-0.04-6.09,0.47-7.52
	c1.29,1.11,4.49,4.57,2.73,10.12c-0.09,0.29-0.25,0.5-0.44,0.74C63.04,28.43,62.84,28.73,62.7,29.11z M73.88,25.05
	c0.02,1.17,0.12,2.39,0.29,3.55c-1.55-0.79-3.1-1.42-4.22-1.67c-0.65-0.49-1.26-1-1.74-1.46c-1.72-1.63-2.47-3.19-3.38-5.26
	C66.67,20.47,71.6,21.78,73.88,25.05z M82.95,52.19c-0.49,0.47-0.98,0.97-1.43,1.46c-0.02-0.08-0.04-0.15-0.07-0.23
	c-0.62-2.21-1.32-4.71-3.58-6.99c-0.01-0.01-0.68-0.66-1.39-1.2c-0.4-0.85-0.69-1.52-0.84-1.85c-0.63-1.47-0.99-4.71-1.05-6.08
	c0.29,0.17,0.58,0.32,0.89,0.48c0.87,0.46,1.78,0.94,2.73,1.79c2.45,2.19,2.95,3.15,4.17,6.66C83,47.95,83.2,50.16,82.95,52.19z
	 M72.87,66.55c0.03-0.98-0.05-1.79-0.21-2.44c-0.02-0.35-0.07-0.82-0.13-1.32c-0.09-0.81-0.19-1.73-0.17-2.22
	c0.11-3,1.03-4.65,2.03-6.34c1.09,0.83,3.93,4.29,1.88,10.51C75.23,65.09,74.04,65.67,72.87,66.55z M67.94,75.54
	c-0.22,0.02-0.45,0.06-0.68,0.1c0.51-1.99,0.6-3.7,0.55-4.94l0.01,0c0.37-6.33,2.23-7.92,2.78-8.25c0.26,0.19,0.78,0.7,1.08,1.83
	c0,0,0,0.01,0,0.01l0,0c0.19,0.75,0.28,1.77,0.13,3.16C70.03,69.15,68.49,71.71,67.94,75.54z M66.7,69.48
	c0.15,1.09,0.3,3.49-0.56,6.44c-1.36,0.42-2.9,1.21-4.44,2.67c-0.09-0.34-0.2-0.66-0.32-0.99C61.37,73,65.22,70.34,66.7,69.48z
	 M76.83,55.69c-0.23-0.42-0.48-0.79-0.73-1.12c-1.83-3.93-1.27-6.36-0.72-8.71l0.04-0.2c0.54,0.37,1.39,1.1,1.74,1.45
	c2.08,2.1,2.72,4.37,3.33,6.56c0.08,0.26,0.15,0.54,0.24,0.84c-0.34,0.4-0.63,0.77-0.85,1.07l-0.49,0.67
	c-0.55,0.75-1.1,1.51-1.57,2.28C77.62,57.38,77.24,56.43,76.83,55.69z M78.89,38.83c-1.04-0.94-2.05-1.47-2.93-1.93
	c-0.37-0.2-0.72-0.39-1.06-0.6c-0.42-0.48-0.79-0.92-1.1-1.27l-0.37-0.43c-0.59-0.68-1-1.27-1.53-2.01c-0.28-0.4-0.6-0.84-0.98-1.37
	c-0.2-0.27-1.22-2.14-1.51-3.39c1.77,0.29,7.38,2.86,8.98,4.87c1.28,1.6,2.18,3.34,2.69,5.16c-0.28,0.72-0.53,1.51-0.74,2.38
	C79.93,39.79,79.46,39.34,78.89,38.83z M61.99,79.69c3.11-3.21,6.32-3.31,7.61-3.19c-0.53,1.25-1.93,4.26-3.81,5.96
	c-1.18,1.06-2.42,1.83-3.58,2.27c0.07-0.6,0.11-1.2,0.11-1.81C62.32,81.81,62.21,80.73,61.99,79.69z M70.73,75.87
	c-0.06-0.12-0.18-0.21-0.32-0.25c-0.06-0.02-0.61-0.14-1.46-0.14c0.56-3.61,2.08-5.98,3.8-7.53l0.02,0c0-0.01,0-0.01,0-0.02
	c1.68-1.51,3.54-2.24,4.86-2.59c-0.29,5.78-2.84,9.92-7.22,11.82c0.22-0.51,0.35-0.84,0.36-0.89C70.81,76.15,70.8,76,70.73,75.87z
	 M84.22,34.73c0.58,0.94,1.46,2.88,1.47,7.34c0.01,3.4-1.01,8.27-1.32,8.77c-0.03,0.04-0.06,0.11-0.09,0.16
	c-0.09,0.07-0.18,0.14-0.26,0.22c0.09-1.86-0.14-3.77-0.68-5.33c-0.79-2.25-1.31-3.53-2.2-4.73c0.4-1.84,0.93-3.33,1.58-4.5l0.01,0
	c0-0.01,0-0.02,0-0.03C83.17,35.86,83.66,35.22,84.22,34.73z M80.27,27.47c0.93,2.49,1.47,5.81,1.46,8.92
	c-0.02,0.03-0.03,0.06-0.05,0.09c-0.57-1.55-1.41-3.03-2.52-4.41c-0.69-0.86-2.2-1.93-3.89-2.87c-0.62-3.26-0.47-7.13-0.02-8.75
	C76.33,21.38,78.99,24.04,80.27,27.47z M68.19,13.82c1.31,0.56,3.87,1.76,5.97,7.1c-0.13,0.73-0.22,1.62-0.26,2.6
	c-1.31-1.4-3.05-2.4-4.72-3.09c-0.36-1.16-0.68-2.45-0.86-3.51C68.07,15.5,68.11,14.42,68.19,13.82z M67.16,15.66
	c0.03,0.44,0.09,0.92,0.18,1.43c0.15,0.88,0.39,1.91,0.67,2.9c-1.34-0.45-2.54-0.69-3.3-0.77c-1.28-0.79-3.52-3.71-4.09-5.49
	C63.05,13.88,65.34,14.56,67.16,15.66z M60.65,16.03c-0.02,0-0.05,0-0.07,0.01c-0.14,0.04-0.26,0.14-0.31,0.28
	c-0.1,0.22-2.31,5.44-0.7,8.94c0.4,0.87,0.88,1.53,1.26,2.06c0.65,0.9,0.96,1.37,0.77,2.06c-0.06,0.24-0.23,0.68-0.49,1.18
	c-0.3,0.31-0.58,0.63-0.86,0.96c0.09-0.54,0.15-1.06,0.17-1.51c0.05-1.24-0.84-4.57-2.4-6.2l-0.05-0.65
	c-0.2-2.91-0.22-8.25-0.22-10.18c0.03,0.01,0.07,0.01,0.1,0.01c0.24,0.06,0.49,0.1,0.74,0.1c0,0,0,0,0,0c0,0,0.01,0,0.01,0
	c0.24,0,0.49-0.04,0.72-0.1c0.05-0.01,0.09-0.02,0.14-0.04c0.04-0.01,0.09-0.02,0.13-0.03c-0.06,0.09-0.1,0.2-0.09,0.32
	C59.58,14,60.03,15.01,60.65,16.03z M59.68,11.8c-0.07,0.04-0.13,0.08-0.21,0.12c0,0,0,0,0,0c-0.09,0.04-0.18,0.07-0.28,0.1
	c-0.04,0.01-0.09,0.02-0.13,0.03c-0.06,0.01-0.11,0.02-0.17,0.03c-0.07,0.01-0.15,0.01-0.22,0.02c-0.04,0-0.09,0-0.14,0
	c-0.07,0-0.14-0.01-0.21-0.02c-0.08-0.01-0.17-0.03-0.25-0.05c-0.69-0.18-1.28-0.7-1.28-1.66c0-1.2,0.91-1.73,1.81-1.73
	c0.9,0,1.81,0.53,1.81,1.73C60.42,11.06,60.11,11.53,59.68,11.8z M54.25,7.28c0.97-1.04,2.49-1.59,3.92-1.39
	c1.19,0.17,2.13,0.84,2.65,1.88c0.2,0.41,0.3,0.88,0.29,1.35c-1.14-2.25-5.31-1.84-5.31,1.26c0,0.94,0.39,1.64,0.96,2.09
	c0,1.16-0.01,7.29,0.21,10.62c-0.07,0-0.14,0-0.2,0.03c-0.13,0.05-0.24,0.15-0.29,0.27c-0.97,2.25-1.97,5.22-1.01,8.22
	c0.08,0.24,0.2,0.52,0.32,0.83c0.41,0.97,0.89,2.13,0.53,3.2l0,0c-0.14,0.51-1.02,1.39-2.39,2.49c0.13-0.29,0.25-0.59,0.35-0.9
	c1.13-3.55,0.87-5.13,0.35-8.27c-0.03-0.16-0.13-0.3-0.27-0.37c-0.15-0.07-0.32-0.07-0.46,0.01c-0.02,0.01-0.44,0.25-1.04,0.75
	l0.07-14.89c0-0.37,0-0.75-0.01-1.14C52.91,11.18,52.87,8.76,54.25,7.28z M50.17,40.92c0-0.1-0.01-0.2-0.04-0.31
	c-1.34-6.3,2.18-9.65,3.65-10.74c0.41,2.58,0.52,4.02-0.44,7.06c-0.44,1.39-1.28,2.52-2.7,3.64c-0.02,0.01-0.03,0.03-0.04,0.05
	C50.46,40.72,50.32,40.82,50.17,40.92z M35.81,50.41c-0.17,0.12-0.32,0.23-0.48,0.35l-0.22,0.14l0.01,0.01
	c-0.04,0.03-0.08,0.06-0.12,0.09c0-0.16,0-0.32-0.02-0.5c-0.62-5.97,1.69-8.17,3.22-9.62l0.32-0.31c0.91-0.89,2.36-1.76,3.24-2.25
	c-0.08,1.62-0.13,2.05-0.23,2.79l-0.02,0.13c-0.24,1.77-2.2,6.92-5.65,9.15l0.01,0.02l-0.03,0.02L35.81,50.41z M33.96,50.33
	c0.01,0.09,0.01,0.18,0.02,0.27c0.1,0.94-0.11,1.17-0.13,1.19l0.02,0.02c-0.14,0.1-0.29,0.21-0.42,0.31
	C33.68,51.5,33.85,50.9,33.96,50.33z M41.71,13.42c-0.45,0-0.82-0.37-0.82-0.82c0-0.45,0.37-0.82,0.82-0.82
	c0.45,0,0.82,0.37,0.82,0.82C42.53,13.05,42.16,13.42,41.71,13.42z M40.6,33.27l-0.1-18.82c0-0.12,0-0.26,0-0.38
	c0.32,0.26,0.73,0.42,1.18,0.42c0.44,0,0.85-0.16,1.17-0.41v24.81c-0.05,0.1-0.11,0.19-0.15,0.29c0.03-0.43,0.05-0.96,0.08-1.67
	c0.01-0.18-0.08-0.34-0.23-0.44c-0.15-0.1-0.34-0.11-0.49-0.03c-0.05,0.03-0.66,0.33-1.45,0.8C40.61,36.4,40.61,35.12,40.6,33.27z
	 M40.54,46.5c0.79-1.42,1.34-2.81,1.65-3.86c0.04,0.41,0.09,0.8,0.14,1.18c0.15,1.02,0.28,1.9-0.1,2.42l0.02,0.01
	c-0.57,0.38-1.15,0.75-1.72,1.13L40.54,46.5z M43.31,43.67c-0.15-1.03-0.32-2.2,0-3.34c0.47-1.71,2.86-4.3,5.01-5.93
	c0.13,0.66,0.29,1.64,0.22,2.34c-0.12,1.27-0.2,1.97-1.23,4.16c-0.85,1.8-2.73,3.56-3.35,4.14c-0.17,0.16-0.21,0.2-0.25,0.26
	c-0.08,0.05-0.16,0.11-0.25,0.16C43.49,44.9,43.4,44.29,43.31,43.67z M47.29,42.84c0.06-0.08,0.11-0.17,0.17-0.25v0.2
	c-0.06,0.04-0.12,0.08-0.17,0.12V42.84z M48.45,40.79c0.06-0.13,0.12-0.26,0.17-0.38V42c-0.06,0.04-0.11,0.08-0.17,0.12V40.79z
	 M49.61,14.08c0.32,0.25,0.72,0.41,1.17,0.41c0.45,0,0.85-0.16,1.18-0.42c0,0.13,0,0.26,0,0.38l-0.08,15.83
	c-0.8,0.85-1.66,2.04-2.27,3.57V14.08z M50.78,11.78c0.45,0,0.82,0.37,0.82,0.82c0,0.45-0.37,0.82-0.82,0.82
	c-0.45,0-0.82-0.37-0.82-0.82C49.96,12.15,50.32,11.78,50.78,11.78z M48.92,4.45c0.18,0.31,0.1,0.8,0,0.96
	c-0.24,0.39-0.3,0.61-0.3,1.05v26.61c-0.09,0-0.19,0.02-0.27,0.08c-0.18,0.12-0.37,0.26-0.56,0.4c0-13.48,0-26.08,0-27.09
	c0-0.29-0.03-0.64-0.23-1.02c-0.08-0.16-0.13-0.62,0.07-0.95c0.13-0.22,0.36-0.33,0.68-0.33C48.72,4.16,48.85,4.33,48.92,4.45z
	 M45.63,3.25c0.16-0.16,0.37-0.25,0.59-0.25c0.22-0.04,0.44,0.09,0.62,0.27c0.11,0.11,0.18,0.24,0.21,0.38
	c-0.1,0.1-0.19,0.2-0.27,0.33c-0.38,0.63-0.34,1.46-0.1,1.92c0.1,0.19,0.12,0.35,0.12,0.57c0,1.03,0,14.1,0,27.88
	c-0.35,0.3-0.71,0.62-1.06,0.95c0-14.57,0-27.75,0-28.83c0-0.19,0.04-0.37,0.14-0.61c0.05-0.12,0.47-1.22-0.07-2.03
	c-0.08-0.12-0.2-0.24-0.36-0.35C45.51,3.4,45.56,3.32,45.63,3.25z M43.64,4.51c0.15-0.23,0.4-0.35,0.77-0.35
	c0.45,0,0.56,0.16,0.6,0.22c0.18,0.27,0.09,0.8-0.02,1.1c-0.15,0.36-0.21,0.67-0.21,0.98c0,1.11,0,14.88,0,29.85
	c-0.33,0.36-0.63,0.72-0.92,1.09V6.46c0-0.44-0.08-0.61-0.28-1.01C43.48,5.29,43.44,4.84,43.64,4.51z M34.38,12.04
	c-0.08,0.02-0.17,0.04-0.24,0.05c-0.07,0.01-0.14,0.01-0.21,0.02c-0.05,0-0.09,0-0.14,0c-0.07,0-0.14-0.01-0.22-0.02
	c-0.06-0.01-0.12-0.02-0.18-0.03c-0.04-0.01-0.08-0.02-0.11-0.03c-0.19-0.06-0.36-0.14-0.51-0.23c-0.42-0.28-0.72-0.74-0.72-1.42
	c0-1.2,0.91-1.73,1.81-1.73c0.9,0,1.81,0.53,1.81,1.73C35.66,11.33,35.08,11.86,34.38,12.04z M35.47,23.23
	c0.22-3.29,0.22-9.6,0.22-10.76c0.57-0.46,0.96-1.15,0.96-2.09c0-3.09-4.17-3.5-5.31-1.26c-0.01-0.47,0.08-0.93,0.29-1.34
	c0.53-1.04,1.47-1.71,2.65-1.88c1.41-0.2,2.95,0.35,3.92,1.39c1.38,1.48,1.35,3.91,1.31,6.05c-0.01,0.39-0.01,0.77-0.01,1.13
	l0.06,12.36l0.03,6.46c0.01,2.1,0.01,3.47,0.01,5.18c-0.64,0.42-1.29,0.91-1.8,1.41l-0.31,0.3c-1.2,1.14-3.01,2.87-3.5,6.49
	c-0.14-0.74-0.36-1.35-0.57-1.8C34.35,36.98,35.02,29.9,35.47,23.23z M32.34,44.88c0.02,0.04,0.05,0.1,0.08,0.15
	c0,0.01,0,0.02,0,0.03l0.02,0c0.6,1.17,1.57,4.08-0.62,8.32c-0.52,0.4-1.02,0.8-1.5,1.19c0.06-0.47,0.04-1-0.11-1.61
	C28.98,47.95,31.36,45.6,32.34,44.88z M29.18,56.8c0,0,0.01-0.01,0.03-0.02c1.87-1.61,4.12-3.35,6.67-5.19l3.25-2.12
	c6.63-4.31,11.69-7.64,14.78-10.05c0.91-0.65,1.77-1.31,2.6-2.18c1.66-1.76,0.8-3.82,0.22-5.19c-0.12-0.28-0.22-0.53-0.29-0.75
	c-0.79-2.45-0.08-4.95,0.73-6.96c1.32,1.2,2.32,4.35,2.27,5.63c-0.06,1.34-0.52,3.53-1.09,4.54c-0.13,0.24-0.05,0.54,0.19,0.68
	c0.23,0.13,0.54,0.05,0.68-0.19c0.05-0.08,0.09-0.18,0.13-0.27l0.01,0.01c0.27-0.57,0.58-1.22,1.28-2.12
	c0.54-0.7,1.12-1.34,1.73-1.91c0.38-0.35,0.73-0.65,1.06-0.9L63.4,29.8c0.01-0.01,0.03-0.01,0.05-0.02c1.01-0.97,2.31-1.5,3.06-1.75
	c0,0.06,0,0.13,0,0.2c-0.04,2.33-0.09,5.86-4.68,6.87c-1.15,0.25-2.03,0.53-2.83,1.13c-0.27,0.2-0.55,0.43-0.83,0.65l-0.02,0l0,0.01
	c-0.66,0.53-1.34,1.09-1.92,1.58c-0.48,0.4-0.89,0.75-1.18,0.97l-2.29,1.64c-0.21,0.15-0.27,0.44-0.13,0.66
	c0.14,0.22,0.43,0.3,0.65,0.18c4.67-2.43,7.88-2.88,9.16-2.82c-1.2,1.24-3.48,3.02-5.13,3.82c-2.09,1.02-5.3,1.95-7.47,1.23
	c-0.63-0.26-1.23-0.14-2.11,0.44c-2.78,1.86-4.23,2.83-4.96,3.38c-0.14,0.07-0.28,0.15-0.41,0.22l0.04,0.08
	c-0.39,0.34-0.33,0.45-0.22,0.62c0.14,0.23,0.43,0.3,0.67,0.17c4.1-2.31,9.05-1.52,10.86-1.11c-3.19,3.77-8.92,3.24-13.27,2.08
	c-0.74-0.2-1.44,0.31-2.06,0.76c-0.13,0.09-0.26,0.18-0.37,0.26c-0.09,0.06-2.27,1.45-3.1,2.06l-0.45,0.33
	c-0.73,0.54-1.56,1.15-2.16,1.76c-0.18,0.18-0.19,0.47-0.02,0.67c0.16,0.2,0.45,0.23,0.66,0.09c0.36-0.25,0.73-0.56,1.12-0.89
	c0.59-0.5,1.21-1.02,1.88-1.38c2.59-1.36,6.88-0.4,8.78,0.13c-0.03,0.02-0.06,0.05-0.09,0.07c-0.95,0.7-2.53,1.88-4.51,2.91
	c-2.57,1.34-5.11,1.03-6.79,0.53c-0.9-0.27-2.05-0.72-2.06-0.72c-0.19-0.08-0.39-0.03-0.53,0.11c-0.18,0.17-0.38,0.35-0.59,0.53
	c-0.31,0.26-0.63,0.55-0.95,0.88c-0.02-0.42-0.06-0.85-0.11-1.27C29.12,56.84,29.15,56.83,29.18,56.8z M25,57.94
	c0.58-1.34,1.82-2.68,2.56-3.48c0.02-0.02,0.03-0.03,0.04-0.05c0.36,1.34,0.87,4.16,0.47,5.69l0.01,0l-0.01,0.04
	c-0.17,0.75-0.39,1.47-0.7,2.19c-0.24,0.58-0.45,1.07-0.64,1.48c-0.02,0.03-0.21,0.4-0.42,0.91c-0.03,0.07-0.07,0.15-0.1,0.21
	c-0.2,0.44-0.35,0.77-0.47,1.05c-0.17-0.12-0.34-0.23-0.5-0.34c-0.12-0.08-0.28-0.1-0.41-0.06c-0.06,0.02-0.12,0.05-0.17,0.09
	C23.72,63.26,23.59,61.2,25,57.94z M23.96,68.16c-0.16,1.03-0.23,2.21-0.19,3.45c-1.25-2.42-3.06-4.45-4.84-6.04
	c-0.35-1.6-0.02-3.15,0.19-3.88C20.26,62.08,23.31,63.53,23.96,68.16z M19.04,60.48c0,0.04,0,0.1,0,0.15
	c-0.08-0.02-0.14-0.04-0.15-0.04c-0.23-0.04-0.47,0.08-0.56,0.31c-0.03,0.08-0.65,1.71-0.52,3.71c-1.47-1.19-2.79-2.03-3.62-2.52
	c-0.07-1.2,0.08-2.12,0.23-2.79c0.63-2.7,2.08-4.89,2.86-5.91C18.05,55.35,19.05,58.32,19.04,60.48z M17.02,43.25
	c-0.05-0.24-0.1-0.47-0.15-0.71c-0.04-0.16-0.14-0.28-0.29-0.34c-0.15-0.06-0.31-0.05-0.45,0.03c-2.65,1.62-5.32,5.19-5.84,9.21
	c-0.01-0.01-0.02-0.03-0.04-0.04c-2.39-10.58,5.71-15.12,8.14-16.22C18.39,36.75,18.25,40.59,17.02,43.25z M19.38,35.44
	c0-0.58-0.01-0.96-0.01-1.03c-0.01-0.16-0.09-0.3-0.22-0.39c-0.13-0.09-0.29-0.11-0.45-0.05c-0.07,0.02-3.61,1.36-6.43,4.59
	c-0.01-0.13-0.02-0.26-0.04-0.39c2.2-10.07,10.61-10.59,12.95-10.57C24.68,29.08,23.07,33.08,19.38,35.44z M24.45,26.44L24,26.66
	c-1.14,0.08-2.67,0.32-4.3,0.93c0.11-1.27,0.11-2.59,0.05-3.69c0.38-0.39,0.81-0.78,1.38-1.22c1.46-1.13,5.21-3.63,9.19-3.38
	C29.93,21.64,27.05,25.21,24.45,26.44z M26.71,15.16c1.49-0.81,3.45-1.17,4.44-1.3c-0.19,1.06-0.7,3.22-1.85,4.44
	c-1.22,0.05-2.38,0.31-3.46,0.68C26.26,17.87,26.62,16.5,26.71,15.16z M25.65,13.32c0.37,1.89-0.36,4.59-1.1,6.15
	c-1.8,0.79-3.23,1.8-4.03,2.42c-0.32,0.25-0.61,0.49-0.87,0.72c0-0.02,0-0.03-0.01-0.05c0.12-0.8,0.33-1.53,0.5-1.96
	C21.86,16.27,23.44,14.58,25.65,13.32z M11.74,32.01c0.08-0.32,0.15-0.65,0.23-1.01c0.68-3.21,2.29-6.64,4.31-9.17
	c0.51-0.64,1.23-1.28,1.68-1.57c0.21,0.33,0.37,0.74,0.58,1.66c0.15,0.65,0.42,3.49,0.12,6.05l0.09,0.01
	c-2.74,1.26-5.55,3.65-7.01,8.18c-0.15-0.42-0.32-0.81-0.5-1.19C11.31,33.87,11.51,33,11.74,32.01z M8.51,32.53
	c0.89,1.13,3.01,3.99,2.77,7.09l0.13,0.01c-1.78,2.47-3.03,5.85-2.43,10.31c-0.6-0.64-1.19-1.2-1.74-1.7
	C4.84,41.15,7.55,34.14,8.51,32.53z M4.44,47.25c1.97,1.46,7.9,6.33,8.84,12.76c-0.07,0.45-0.12,0.96-0.11,1.56
	c-0.12-0.02-0.24-0.01-0.35,0.06c-0.15,0.1-0.23,0.27-0.22,0.45c0,0.01,0,0.02,0,0.03c-1.01-0.8-2.37-1.32-3.6-1.65
	C3.82,55.95,4.15,49.44,4.44,47.25z M6.67,60.99c1.84,0.28,5.06,1.07,6.08,2.73l0.02-0.02c0.21,1.51,0.64,3.85,1.47,6.21
	C9.81,68.15,7.42,62.93,6.67,60.99z M10.34,71.11c2.11-0.27,3.28-0.24,4.39,0.06c1.39,3.28,3.64,6.28,7.29,6.67
	c0.29,0.6,0.67,1.26,1.14,1.94c-0.59-0.06-1.17-0.07-1.73-0.04l0-0.01C16.58,78.62,12.23,74.59,10.34,71.11z M18.59,81.21
	c1.02-0.28,3.41-0.79,5.45-0.27c1.04,1.25,2.41,2.51,4.23,3.59c0.7,0.41,1.39,0.71,2.09,0.93c0.02,0.13,0.04,0.27,0.06,0.41
	C21.61,85.46,19.18,82.36,18.59,81.21z M46.23,98.02c-8.32,0-15.1-6.77-15.1-15.1c0-8.32,6.77-15.1,15.1-15.1
	c8.32,0,15.1,6.77,15.1,15.1C61.33,91.24,54.55,98.02,46.23,98.02z M62,86.09c0.02-0.08,0.02-0.16,0.04-0.25
	c1.79-0.54,3.37-1.72,4.41-2.65c0.5-0.45,0.97-0.98,1.39-1.54c2.48-0.44,4.32,0.12,5.14,0.46C72.1,83.24,69.12,86.17,62,86.09z
	 M71.78,80.72c-0.85-0.18-1.91-0.28-3.17-0.16c0.46-0.72,0.86-1.45,1.18-2.09c3.02-1.03,5.32-2.95,6.82-5.6
	c1.77-1.4,4.55-1.56,5.69-1.46C81.59,73.38,79,78.86,71.78,80.72z M81.32,70.41c-1.15,0.04-2.63,0.26-3.94,0.85
	c0.49-1.2,0.84-2.51,1.04-3.93c1.87-3.06,4.37-4.44,5.98-5.04l0.02,0.02c0.01-0.01,0.02-0.02,0.03-0.03
	c0.37-0.13,0.68-0.23,0.93-0.29C85.18,63.6,84.36,67.93,81.32,70.41z M43.93,84.7c0.35-0.17,0.83-0.53,1.15-0.6
	c0.02,0.42-0.3,1.71-0.71,3.05c-0.19,0.73-0.93,2.9-1.22,3.42c-0.26,0.48-0.75,1.46-2.32,1.48c-0.37,0-0.9-0.11-1.22-0.34
	c-0.45-0.32-0.32-0.64-0.15-0.86c0.17-0.22,0.38-0.42,0.66-0.63c0.24-0.19,0.27-0.11,0.13,0.06c-0.09,0.13-0.06,0.45,0.06,0.56
	c0.23,0.2,1.27,0.32,1.32,0.31c0.36-0.06,0.54-0.45,0.64-0.65c0.28-0.58,0.47-1.31,0.61-1.73c-0.46,0.4-1.29,0.68-2.12,0.22
	c-0.72-0.4-0.15-1.66-0.1-1.79c0.01-0.01,1.11-2.28,0.28-2.31c-0.4-0.01-0.7,0.15-0.82,0.19c-0.06,0.01-0.14,0.37-0.19,0.45
	c-0.04,0.06-0.12,0.11-0.23,0.19c-0.13,0.09-0.24,0.2-0.45,0.39c-0.08,0.07-0.17,0.18-0.29,0.19c-0.04-0.03-0.06-0.06-0.07-0.07
	c-0.06-0.16,0.02-0.54,0.24-0.83c0.49-0.63,0.88-0.92,1.41-1.11c0.4-0.15,1.07-0.29,1.5,0.14c0.36,0.36,0.21,0.82,0.05,1.33
	c-0.09,0.28-0.71,1.4-0.62,2.02c0.08,0.57,1.17,0.58,1.66,0.19c0.22-0.7,0.45-1.48,0.59-2.12C43.75,85.72,43.91,84.71,43.93,84.7z
	 M52.27,84.7c0.35-0.17,0.83-0.53,1.15-0.6c0.02,0.42-0.3,1.71-0.71,3.05c-0.19,0.73-0.94,2.9-1.22,3.42
	c-0.27,0.48-0.75,1.46-2.32,1.48c-0.37,0-0.89-0.11-1.22-0.34c-0.46-0.32-0.32-0.64-0.15-0.86c0.17-0.22,0.38-0.42,0.65-0.63
	c0.24-0.19,0.27-0.11,0.14,0.06c-0.09,0.13-0.06,0.45,0.06,0.56c0.23,0.2,1.27,0.32,1.33,0.31c0.36-0.06,0.54-0.45,0.64-0.65
	c0.28-0.58,0.47-1.31,0.61-1.73c-0.46,0.4-1.29,0.68-2.12,0.22c-0.72-0.4-0.15-1.66-0.1-1.79c0.01-0.01,1.11-2.28,0.28-2.31
	c-0.4-0.01-0.7,0.15-0.83,0.19c-0.06,0.01-0.14,0.37-0.19,0.45c-0.04,0.06-0.12,0.11-0.23,0.19c-0.13,0.09-0.24,0.2-0.45,0.39
	c-0.08,0.07-0.17,0.18-0.29,0.19c-0.04-0.03-0.06-0.06-0.07-0.07c-0.06-0.16,0.02-0.54,0.25-0.83c0.48-0.63,0.88-0.92,1.41-1.11
	c0.4-0.15,1.08-0.29,1.5,0.14c0.36,0.36,0.21,0.82,0.04,1.33c-0.09,0.28-0.7,1.4-0.62,2.02c0.08,0.57,1.17,0.58,1.67,0.19
	c0.22-0.7,0.45-1.48,0.59-2.12C52.08,85.72,52.24,84.71,52.27,84.7z M47.46,76.96c-0.59-0.04-1.19-0.05-1.79-0.05
	c-0.91,2.79-1.71,4.34-3.66,3.93c-0.53-0.11-0.95-0.36-1.22-0.74c-0.14-0.19-0.27-0.64-0.09-0.85c0.23-0.25,0.31-0.46,0.56-0.7
	c0.23-0.21,0.2-0.11,0.17,0.13c-0.02,0.16,0,0.29,0.06,0.44c0.12,0.27,0.38,0.43,0.65,0.53c0.29,0.11,0.79,0.31,1.1,0.22
	c0.24-0.07,0.44-0.39,0.56-0.58c0.41-0.64,0.64-1.4,0.84-2.12c0.02-0.09,0.04-0.18,0.07-0.28c-0.29-0.03-1.05,0.04-1.28,0.24
	c-0.11,0.09-0.17,0.15-0.19,0.13c-0.01-0.02-0.03-0.09,0-0.12c0.1-0.1,0.34-0.7,0.8-0.92c0.16-0.08,0.68-0.17,0.86-0.2
	c0.08-0.41,0.15-0.81,0.21-1.22c0.03-0.22,0.08-0.47,0.11-0.72c-0.24-0.01-0.54,0-0.8,0c-0.12,0-0.34-0.03-0.33,0.11
	c0.01,0.17-0.13,0.23-0.25,0.33c-0.65,0.55-0.01,0-0.65,0.55c-0.22,0.19-0.16-0.52-0.11-0.63c0.11-0.24,0.46-0.43,0.67-0.57
	c0.3-0.2,0.54-0.46,0.89-0.56c0.52-0.15,1.06,0.05,1.59-0.07c0.04-0.01,0.09-0.02,0.14-0.03c-0.12,0.94-0.24,1.9-0.45,2.79
	c0.2,0.01,0.4,0.02,0.59,0.03c0.49,0.01,0.97,0.05,1.46,0.08c0.1-0.37,0.65-1.58,0.85-1.89c0.75-1.16,0.84-1.24,1.75-1.29
	c0.31-0.02,0.98,0.01,1.03,0.05c0.1,0.07-0.06,0.17-0.15,0.22c-0.28,0.17-0.52,0.4-0.87,0.58c-0.01,0-0.31-0.08-0.46-0.02
	c-0.24,0.11-0.17,0.03-0.44,0.42c-0.2,0.29-0.38,0.68-0.51,0.98c-0.14,0.35-0.22,0.61-0.3,1c0.12,0,0.24,0,0.36-0.01
	c1.03-0.08,1.32-0.26,1.59-0.46c0.06-0.04,0.05,0.07,0.02,0.1c-0.03,0.03-0.32,0.62-0.77,0.89c-0.3,0.18-1.06,0.23-1.43,0.29
	c-0.03,0.35-0.1,0.73-0.11,1.08c-0.01,0.46,0.01,0.91,0.18,1.32c0.13,0.32,0.56,0.71,0.89,0.73c0.45,0.06,0.73-0.74,0.73-0.78
	c0.01-0.08,0.01-0.11,0.05-0.13c0.37-0.17,1.02-0.59,1.08-0.61c0.03-0.01,0.07,0.09,0.05,0.16c-0.12,0.42-0.87,2.72-2.55,2.2
	c-0.77-0.24-1.52-1-1.49-2.43c0.01-0.5,0.13-1.04,0.25-1.52C47.64,76.97,47.55,76.97,47.46,76.96z"/>
</svg>
